<svg id="Layer_3" enable-background="new 0 0 64 64" height="512" viewBox="0 0 64 64" width="512" xmlns="http://www.w3.org/2000/svg"><g><path d="m62 23c.553 0 1-.448 1-1v-16c0-.552-.447-1-1-1h-1v-3c0-.552-.447-1-1-1h-56c-.553 0-1 .448-1 1v3h-1c-.553 0-1 .448-1 1v16c0 .552.447 1 1 1h1v34h-1c-.553 0-1 .448-1 1v4c0 .552.447 1 1 1h60c.553 0 1-.448 1-1v-4c0-.552-.447-1-1-1h-1v-34zm-57-20h54v2h-54zm-2 4h58v14h-58zm56 26h-12v-6h12zm-14 0h-12v-6h12zm-14 0h-12v-6h12zm-14 0h-12v-6h12zm44 28h-58v-2h58zm-26-4h-2v-15c0-.552-.447-1-1-1h-20c-.553 0-1 .448-1 1v15h-2v-18h26zm-22 0v-14h8v14zm10-14h8v14h-8zm32 14h-12v-18h12zm2 0v-19c0-.552-.447-1-1-1h-14c-.553 0-1 .448-1 1v19h-4v-19c0-.552-.447-1-1-1h-28c-.553 0-1 .448-1 1v19h-2v-22h54v22zm2-32h-54v-2h54z"/><path d="m19 9h-4c-.553 0-1 .448-1 1v8c0 .552.447 1 1 1h4c1.654 0 3-1.346 3-3 0-.768-.29-1.469-.766-2 .476-.531.766-1.232.766-2 0-1.654-1.346-3-3-3zm0 8h-3v-2h3c.552 0 1 .449 1 1s-.448 1-1 1zm0-4h-3v-2h3c.552 0 1 .449 1 1s-.448 1-1 1z"/><path d="m28 9c-2.206 0-4 1.794-4 4v6h2v-3h4v3h2v-6c0-2.206-1.794-4-4-4zm-2 5v-1c0-1.103.897-2 2-2s2 .897 2 2v1z"/><path d="m40 15-4.2-5.6c-.258-.344-.706-.485-1.116-.349-.409.137-.684.518-.684.949v9h2v-6l4.2 5.6c.192.256.491.4.8.4.105 0 .212-.017.316-.051.409-.137.684-.518.684-.949v-9h-2z"/><path d="m50 9h-2c0 1.418-.765 2.692-2 3.37v-3.37h-2v10h2v-3.37c1.235.678 2 1.952 2 3.37h2c0-2.075-1.081-3.944-2.836-5 1.755-1.056 2.836-2.925 2.836-5z"/><path d="m46 49h6c.553 0 1-.448 1-1v-6c0-.552-.447-1-1-1h-6c-.553 0-1 .448-1 1v6c0 .552.447 1 1 1zm1-6h4v4h-4z"/></g></svg>