<svg id="Layer_1" enable-background="new 0 0 511.527 511.527" height="512" viewBox="0 0 511.527 511.527" width="512" xmlns="http://www.w3.org/2000/svg"><g><path d="m55.399 337.485c29.531 31.129 72.199 50.433 114.546 55.01v80.321c0 15.149 12.325 27.474 27.474 27.474h225.093c9.386 0 9.813-15 0-15h-225.093c-6.878 0-12.474-5.596-12.474-12.474v-114.847c0-6.878 5.596-12.474 12.474-12.474h286.634c6.878 0 12.474 5.596 12.474 12.474v114.847c0 6.878-5.596 12.474-12.474 12.474h-21.615c-9.386 0-9.813 15 0 15h21.615c15.149 0 27.474-12.325 27.474-27.474v-114.847c0-15.149-12.324-27.474-27.474-27.474h-14.236c.001-29.54-.001-70.538 0-100.141 0-4.142-3.357-7.5-7.5-7.5h-73.554c.002-15.642-.001-48.46 0-64.26 0-4.142-3.357-7.5-7.5-7.5h-6.344c-21.595-80.851-100.144-141.202-184.202-139.834-23.273-.001-46.017 4.136-67.598 12.294-8.779 3.319-3.876 17.5 5.304 14.031 17.557-6.637 35.955-10.38 54.794-11.165v157.916l-111.675-111.672c7.042-6.457 14.653-12.404 22.81-17.744 7.853-5.14-.004-17.925-8.215-12.551-100.76 63.447-115.874 212.261-30.738 295.116zm399.418-42.87h-66.054v-20.88h66.054zm-147.108-56.761h66.054v20.88h-66.054zm0 35.881h66.054v20.88h-66.054zm66.054-50.881h-66.054v-20.88h66.054zm0-56.76v20.88h-66.054v-20.88zm-81.054 128.521h-66.054v-20.88h66.054zm-66.054 15h66.054v20.88h-66.054zm81.054 0h66.054v20.88h-66.054zm81.054 20.88v-20.88h66.054v20.88zm66.054-71.76h-66.054v-20.88h66.054zm-95.521-107.641h-59.087c-4.143 0-7.5 3.358-7.5 7.5.004 29.621-.003 70.583 0 100.141h-73.554c-4.142 0-7.5 3.358-7.5 7.5.017 15.841-.012 48.575 0 64.26h-14.236c-15.149 0-27.474 12.325-27.474 27.474v19.442c-36.82-4.323-71.105-20.105-98.395-45.201l124.47-124.465c1.388-1.388 2.197-3.343 2.197-5.306v-176.027c73.1 1.923 140.546 54.725 161.079 124.682zm-298.379-67.841 119.194 119.189-119.162 119.157c-61.605-64.21-61.192-174.602-.032-238.346z"/><path d="m328.372 385.953c9.931-.344 9.923-14.66 0-15h-31.275c-4.143 0-7.5 3.358-7.5 7.5v74.222c0 4.142 3.357 7.5 7.5 7.5h31.275c9.931-.344 9.923-14.66 0-15h-23.775v-22.111h21.47c9.931-.344 9.923-14.66 0-15h-21.47v-22.111z"/><path d="m210.457 451.494c0 4.418 2.701 8.681 7.676 8.681.622-.002 15.291-.059 21.146-.161 48.202-.893 48.243-88.273-.733-87.528h-20.588c-4.212 0-7.5 3.405-7.5 7.575v71.433zm28.089-64.009c29.633-.527 28.836 57.192.471 57.53-3.063.054-8.867.095-13.546.122-.062-19.217.034-38.435 0-57.652z"/><path d="m379.983 370.269h-21.759c-4.143 0-7.5 3.358-7.5 7.5-.004 18.466.003 56.32 0 74.905 0 3.734 3.733 7.5 7.533 7.5h25.525c27.001-.214 37.734-34.867 15.968-50.318 12.227-15.973.508-39.693-19.767-39.587zm0 15c12.918.536 12.911 18.939 0 19.472-4.753 0-9.506.026-14.259.02v-19.492zm3.8 59.816c-3.298 0-11.762.032-18.059.057v-25.357c6.02-.024 12.039-.024 18.059-.024 16.799.695 16.794 24.632 0 25.324z"/><path d="m442.747 460.516c4.143 0 7.5-3.358 7.5-7.5v-67.405h13.268c9.931-.344 9.923-14.66 0-15h-41.368c-9.931.344-9.923 14.66 0 15h13.101v67.405c-.001 4.142 3.356 7.5 7.499 7.5z"/></g></svg>