<svg id="Capa_1" enable-background="new 0 0 512 512" height="512" viewBox="0 0 512 512" width="512" xmlns="http://www.w3.org/2000/svg"><g><path d="m493.605 424.305v-28.965c0-6.637-5.385-12.035-12.006-12.035h-232.61c-6.902 0-12.516 5.615-12.516 12.517v27.373h-75.942c-4.142 0-7.499 3.358-7.499 7.499s3.357 7.499 7.499 7.499h83.442 242.134c6.008 0 10.895 4.877 10.895 10.872v24.013c0 6.011-4.887 10.901-10.895 10.901h-460.178c-5.993 0-10.867-4.89-10.867-10.901v-24.013c0-5.995 4.874-10.872 10.867-10.872h99.966c4.142 0 7.499-3.358 7.499-7.499s-3.357-7.499-7.499-7.499h-99.966c-14.262 0-25.865 11.605-25.865 25.87v24.013c0 14.281 11.603 25.899 25.865 25.899h460.177c14.278 0 25.894-11.618 25.894-25.899v-24.013c0-11.66-7.763-21.539-18.395-24.76zm-242.134-1.11v-24.891h227.136v24.891z"/><path d="m27.444 397.58c2.381.485 4.81.722 7.243.722 7.926 0 15.884-2.52 22.261-7.205l164.614-120.629c3.547 4.811 8.765 7.964 14.71 8.876 1.164.179 2.327.267 3.482.267 4.759 0 9.366-1.499 13.241-4.353l15.873-11.625c8.485 8.477 17.419 16.679 26.819 24.584-3.122 6.68-2.609 14.821 2.052 21.191l3.638 4.937c4.242 5.804 10.514 9.607 17.659 10.709 1.403.217 2.805.324 4.197.324 5.698 0 11.216-1.794 15.869-5.212l91.204-66.85c12.004-8.79 14.626-25.711 5.847-37.721-.001-.002-.003-.004-.005-.007l-3.664-5c-3.282-4.464-8.12-7.39-13.624-8.239-1.989-.308-3.973-.32-5.908-.069-25.383-61.248-62.812-112.384-111.374-152.186 3.068-6.659 2.539-14.75-2.095-21.082l-3.635-4.971c-4.256-5.796-10.527-9.594-17.659-10.695-7.141-1.102-14.267.636-20.056 4.889l-91.243 66.857c-12 8.815-14.601 25.74-5.821 37.699l3.652 5.023c4.08 5.547 10.415 8.488 16.83 8.488.867 0 1.734-.068 2.598-.176 4.534 11.333 9.6 22.396 15.196 33.175l-15.582 11.44c-4.84 3.544-8.013 8.781-8.934 14.746-.915 5.937.519 11.861 4.032 16.696l-54.31 39.806c-3.34 2.448-4.064 7.141-1.615 10.482 2.447 3.34 7.142 4.063 10.481 1.616l54.293-39.794 24.977 34.085-164.612 120.627c-4.986 3.662-11.578 5.112-17.638 3.879-5.01-1.02-9.081-3.795-11.467-7.817-5.574-9.382-5.944-22.742 4.135-30.124l83.045-60.87c3.34-2.448 4.064-7.141 1.615-10.482-2.448-3.341-7.143-4.063-10.481-1.616l-83.043 60.868c-15.261 11.178-18.695 32.157-8.168 49.879 4.57 7.705 12.16 12.981 21.371 14.858zm392.951-178.119 3.653 4.985c3.9 5.339 2.733 12.86-2.604 16.769l-91.214 66.856c-2.562 1.883-5.727 2.648-8.906 2.158-3.18-.491-5.963-2.173-7.855-4.76l-3.642-4.941c-1.903-2.601-1.334-6.268 1.273-8.177l101.168-74.146c.986-.726 2.164-1.106 3.388-1.106.304 0 .61.023.918.071 1.555.24 2.914 1.057 3.821 2.291zm-20.907-10.485-93.355 68.42c-49.526-41.444-85.989-91.154-108.484-147.902l93.52-68.541c47.321 38.53 83.725 88.282 108.319 148.023zm-222.66-90.016-3.648-5.019c-3.909-5.323-2.747-12.843 2.582-16.758l91.243-66.857c2.056-1.511 4.498-2.302 7.024-2.302.62 0 1.246.048 1.872.145 3.178.491 5.969 2.177 7.849 4.737l3.629 4.961c0 .001.001.001.002.002 1.78 2.432 1.414 5.784-.749 7.767-.081.065-.16.131-.238.2-.085.07-.167.144-.258.21l-101.154 74.136c-.132.096-.268.182-.406.266-.025.016-.049.032-.073.048-2.525 1.48-5.935.831-7.675-1.536zm12.825 78.812c.309-2.003 1.364-3.754 2.978-4.936l13.968-10.255c14.324 25.034 31.603 48.463 51.756 70.16l-14.238 10.428c-1.597 1.176-3.576 1.658-5.571 1.35-2.003-.307-3.755-1.363-4.935-2.976l-42.6-58.148c-1.186-1.618-1.668-3.615-1.358-5.623z"/></g></svg>