<svg id="Capa_1" enable-background="new 0 0 512 512" height="512" viewBox="0 0 512 512" width="512" xmlns="http://www.w3.org/2000/svg"><g><path d="m511.096 210.671c0-42.697-16.627-82.838-46.818-113.029-34.898-34.899-82.824-51.477-131.795-45.703-2.579-4.978-6.709-9.084-11.865-11.593l-42.028-20.45c-3.571-1.738-7.558-2.657-11.525-2.657-7.041 0-13.661 2.741-18.639 7.719l-22.811 22.811-8.028-8.028c-8.433-8.433-21.204-9.939-31.193-4.53l-27.483-27.482c-.003-.003-.006-.007-.009-.01-4.978-4.978-11.595-7.719-18.635-7.719s-13.657 2.741-18.634 7.719l-26.663 26.662c-4.978 4.978-7.719 11.595-7.719 18.635 0 4.463 1.105 8.754 3.18 12.567l-23.957 23.957c-3.813-2.074-8.104-3.179-12.567-3.179-7.039 0-13.657 2.741-18.635 7.718l-26.662 26.662c-10.275 10.275-10.275 26.994 0 37.269l27.049 27.049c-2.951 4.331-4.542 9.44-4.542 14.796 0 7.04 2.741 13.657 7.719 18.634l8.028 8.028-22.811 22.811c-7.943 7.942-9.978 20.065-5.063 30.166l26.945 55.375c2.62 5.385 4 11.271 3.991 17.025-.069 42.798 16.555 83.031 46.811 113.288 30.192 30.191 70.333 46.818 113.031 46.818s82.838-16.627 113.03-46.818c25.753-25.754 41.916-59.539 45.86-95.605 36.114-3.887 69.572-19.827 95.62-45.876 30.191-30.191 46.818-70.332 46.818-113.03zm-183.374-127.994c4.329-4.329 6.955-10 7.567-15.965 44.007-4.872 87.008 10.163 118.381 41.537 27.358 27.358 42.426 63.733 42.426 102.423 0 30.338-9.267 59.25-26.457 83.51-1.271-2.81-3.055-5.442-5.361-7.749-3.406-3.406-7.579-5.763-12.13-6.913 29.472-43.167 28.557-101.633-4.66-144.071-2.554-3.262-7.268-3.837-10.529-1.283-3.262 2.553-3.836 7.267-1.283 10.528 33.309 42.555 29.583 103.489-8.667 141.738-16.768 16.768-38.16 27.275-61.336 30.365-6.638-29.43-21.375-56.176-42.875-77.675-21.488-21.487-48.243-36.231-77.667-42.871 3.024-22.451 13.138-44.121 30.357-61.34 38.251-38.25 99.188-41.975 141.742-8.664 3.262 2.554 7.976 1.979 10.529-1.283s1.979-7.976-1.283-10.529c-31.892-24.964-72.836-31.684-109.537-20.975zm-1.686 232.12c-5.894-18.408-16.169-35.281-29.9-49.012-13.725-13.726-30.589-23.998-48.988-29.892-1.93-8.026-2.922-16.232-2.981-24.444 25.729 6.258 49.126 19.382 68.024 38.28 18.908 18.907 32.022 42.292 38.278 68.021-8.338-.058-16.522-1.06-24.433-2.953zm-18.417-6.234c-11.832-5.265-22.711-12.71-32.131-22.131-9.543-9.544-16.899-20.457-22.083-32.11 11.911 5.309 22.837 12.784 32.124 22.07 9.298 9.298 16.779 20.241 22.09 32.171zm-48.588-272.999c2.146-2.145 4.998-3.326 8.033-3.326 1.731 0 3.401.385 4.963 1.145l42.027 20.45c3.344 1.626 5.613 4.663 6.229 8.33.615 3.667-.54 7.278-3.169 9.907l-52.234 52.234c-47.622 47.623-47.622 125.111 0 172.734 23.037 23.037 53.702 35.723 86.357 35.721h.012c32.662-.003 63.334-12.689 86.366-35.721 2.144-2.145 4.995-3.325 8.027-3.325s5.884 1.181 8.027 3.325c4.427 4.426 4.427 11.629 0 16.056-27.357 27.358-63.732 42.425-102.423 42.425s-75.064-15.067-102.423-42.425c-21.072-21.072-34.837-47.488-40.055-76.193-.036-.274-.085-.542-.148-.805-1.475-8.386-2.228-16.963-2.214-25.658.013-8.022-1.89-16.188-5.503-23.613l-26.945-55.375c-2.117-4.351-1.241-9.573 2.181-12.995zm-174.898 153.685-8.028-8.028c-7.762-7.762-19.201-9.656-28.762-5.691l-11.301-11.301c3.659-1.292 7.012-3.394 9.837-6.219l26.663-26.663c8.433-8.433 9.939-21.203 4.53-31.193l23.966-23.966c3.813 2.075 8.105 3.18 12.567 3.18 7.039 0 13.657-2.741 18.634-7.719l26.662-26.662c2.873-2.873 4.941-6.25 6.208-9.849l10.669 10.669c-2.075 3.813-3.18 8.104-3.18 12.567 0 7.04 2.741 13.657 7.719 18.634l8.028 8.028-22.811 22.811c-7.943 7.942-9.978 20.065-5.063 30.166l22.404 46.043c-1.176-.837-2.421-1.59-3.739-2.231l-42.028-20.45c-10.101-4.914-22.223-2.88-30.165 5.062zm102.108 34.909c2.224-2.224 3.998-4.803 5.284-7.592.178 4.942.576 9.844 1.195 14.695-5.869.819-11.641 2.056-17.279 3.697zm12.711-177.136c3.032 0 5.883 1.181 8.028 3.325l8.028 8.028-16.056 16.056-8.028-8.029c-2.145-2.144-3.325-4.995-3.325-8.027s1.181-5.883 3.325-8.028 4.995-3.325 8.028-3.325zm-93.375-2.034 26.663-26.663c2.144-2.145 4.995-3.325 8.027-3.325s5.883 1.181 8.028 3.325 3.325 4.996 3.325 8.028-1.181 5.883-3.325 8.028l-26.662 26.662c-2.145 2.145-4.996 3.325-8.028 3.325-3.033 0-5.884-1.181-8.028-3.326-2.145-2.144-3.325-4.995-3.325-8.027s1.18-5.883 3.325-8.027zm-86.36 86.36 26.662-26.663c2.145-2.144 4.996-3.325 8.028-3.325s5.883 1.181 8.028 3.326c2.145 2.144 3.325 4.995 3.325 8.027s-1.181 5.883-3.325 8.028l-26.663 26.663c-2.144 2.144-4.995 3.325-8.028 3.325s-5.884-1.181-8.028-3.325c-2.145-2.145-3.325-4.996-3.325-8.028.001-3.033 1.181-5.884 3.326-8.028zm30.226 76.535c-2.145-2.144-3.325-4.995-3.325-8.027s1.181-5.883 3.325-8.028 4.996-3.325 8.028-3.325 5.883 1.181 8.028 3.325l8.028 8.028-16.056 16.056zm57.901 246.692c-27.416-27.417-42.48-63.874-42.417-102.656.013-8.023-1.89-16.188-5.503-23.613l-26.945-55.375c-2.117-4.351-1.241-9.573 2.181-12.995l82.891-82.891c3.421-3.422 8.644-4.299 12.995-2.18l42.028 20.45c3.344 1.626 5.614 4.663 6.229 8.33s-.54 7.278-3.169 9.907l-42.37 42.37c-2.929 2.929-2.929 7.678 0 10.606 1.616 1.616 3.787 2.336 5.9 2.168.252.026.505.042.758.042 1.596 0 3.206-.508 4.568-1.557 14.826-11.408 32.282-18.637 50.822-21.133 6.558 29.187 21.233 55.979 42.906 77.652 21.667 21.667 48.459 36.346 77.642 42.909-3.138 23.152-13.756 44.727-30.332 61.303-41.773 41.774-109.746 41.774-151.521 0-38.25-38.25-41.976-99.186-8.665-141.74 2.553-3.262 1.979-7.976-1.283-10.529-3.261-2.553-7.975-1.979-10.529 1.283-37.979 48.518-33.735 117.987 9.87 161.593 23.814 23.814 55.086 35.72 86.367 35.717 31.274-.002 62.559-11.908 86.367-35.717 2.144-2.145 4.995-3.325 8.027-3.325s5.884 1.181 8.027 3.325c4.427 4.426 4.427 11.629 0 16.056-27.355 27.358-63.73 42.425-102.42 42.425s-75.065-15.067-102.424-42.425zm220.796-18.956c-1.27-2.794-3.048-5.411-5.343-7.706-3.412-3.412-7.594-5.772-12.155-6.92 10.518-15.434 17.404-33.152 20.021-51.786 6.773.865 13.644 1.312 20.584 1.312.735 0 1.468-.017 2.201-.027-2.994 23.511-11.731 45.871-25.308 65.127z"/></g></svg>