<?xml version="1.0" standalone="no"?>
<!DOCTYPE svg PUBLIC "-//W3C//DTD SVG 20010904//EN"
 "http://www.w3.org/TR/2001/REC-SVG-20010904/DTD/svg10.dtd">
<svg version="1.0" xmlns="http://www.w3.org/2000/svg"
 width="646.000000pt" height="646.000000pt" viewBox="0 0 646.000000 646.000000"
 preserveAspectRatio="xMidYMid meet">
<metadata>
Created by potrace 1.14, written by Peter Selinger 2001-2017
</metadata>
<g transform="translate(0.000000,646.000000) scale(0.100000,-0.100000)"
fill="#000000" stroke="none">
<path d="M13 5423 c9 -54 60 -153 107 -206 49 -55 140 -103 215 -112 29 -4
456 -8 947 -9 875 -2 895 -3 969 -23 272 -76 448 -250 518 -515 90 -335 -6
-651 -251 -829 -84 -60 -146 -71 -420 -77 l-248 -4 0 626 0 626 -813 0 c-448
0 -816 -3 -819 -6 -8 -7 35 -115 63 -160 44 -71 103 -118 162 -129 21 -4 131
-8 245 -9 201 -2 209 -3 262 -28 91 -43 144 -108 164 -202 18 -81 14 -2837 -4
-2891 -31 -92 -98 -163 -182 -191 -39 -13 -94 -16 -291 -15 -263 1 -293 -4
-343 -51 -34 -32 -72 -101 -76 -138 l-3 -24 1125 0 c1004 0 1210 3 1286 18 12
2 37 7 55 10 73 12 96 17 149 32 356 97 619 276 792 540 110 166 179 323 205
463 2 14 6 27 8 31 9 14 18 150 17 245 -2 237 -90 474 -256 696 -93 124 -178
202 -322 298 -126 84 -338 199 -391 213 -29 8 -29 22 0 35 35 16 167 131 222
193 128 144 227 358 250 539 4 30 9 63 11 75 6 26 5 285 0 294 -2 4 -7 30 -10
57 -33 257 -234 510 -486 612 -135 54 -89 53 -1529 53 l-1334 0 6 -37z m1550
-1033 c14 -11 30 -35 36 -53 13 -42 12 -2766 -1 -2814 -25 -91 -183 -98 -219
-10 -10 22 -12 351 -11 1411 0 759 1 1390 1 1402 1 23 25 55 56 72 33 19 109
15 138 -8z m627 -1023 c8 -2 33 -7 54 -12 67 -14 228 -81 309 -129 197 -116
345 -268 444 -454 42 -78 107 -256 117 -322 3 -19 11 -65 16 -101 13 -80 17
-263 6 -341 -33 -258 -179 -457 -395 -539 -64 -24 -70 -25 -166 -42 -166 -29
-429 4 -558 69 -85 43 -132 106 -153 204 -4 19 -9 405 -11 857 l-4 821 163 -3
c90 -2 170 -6 178 -8z"/>
<path d="M3231 5426 c74 -56 173 -172 223 -259 25 -45 47 -85 48 -89 2 -4 221
-8 488 -10 l485 -4 100 -27 c334 -90 546 -319 621 -671 20 -94 24 -274 8 -377
-54 -353 -300 -667 -640 -818 -80 -36 -225 -83 -293 -96 -133 -25 -208 -34
-361 -41 -74 -4 -136 -8 -138 -9 -1 -1 26 -31 60 -67 86 -87 228 -243 328
-358 46 -52 97 -111 114 -130 17 -19 85 -98 151 -175 66 -77 122 -142 125
-145 3 -3 41 -48 84 -100 80 -95 97 -114 236 -270 344 -384 609 -580 921 -680
96 -31 252 -64 352 -75 32 -4 66 -8 75 -10 9 -1 67 -6 129 -10 105 -6 111 -6
108 12 -2 10 -4 21 -4 24 -1 4 -16 9 -33 12 -178 27 -423 171 -620 363 -164
160 -235 241 -463 534 -197 252 -260 324 -415 480 -127 127 -227 211 -340 287
-95 64 -152 92 -268 133 -51 18 -91 34 -90 36 2 1 75 4 163 5 173 3 299 17
416 49 41 11 79 21 84 23 45 12 155 58 225 95 153 80 263 162 385 287 89 91
96 101 169 210 159 237 228 489 221 800 -3 140 -7 183 -21 245 -3 14 -8 35
-10 47 -10 55 -66 200 -103 269 -104 193 -251 329 -464 429 -97 46 -157 65
-297 94 -78 17 -159 19 -944 20 l-860 2 45 -35z"/>
<path d="M722 4397 c-12 -7 -30 -23 -39 -36 -15 -22 -16 -139 -16 -1421 0
-1128 2 -1404 13 -1429 33 -82 159 -78 192 5 10 25 13 316 12 1421 0 1299 -1
1390 -18 1421 -26 49 -92 67 -144 39z"/>
</g>
</svg>
