<?xml version="1.0" encoding="UTF-8"?>
<svg xmlns="http://www.w3.org/2000/svg" xmlns:xlink="http://www.w3.org/1999/xlink" width="500pt" height="500pt" viewBox="0 0 500 500" version="1.1">
<g id="surface1">
<rect x="0" y="0" width="500" height="500" style="fill:rgb(2.745056%,5.488586%,19.604492%);fill-opacity:1;stroke:none;"/>
<path style=" stroke:none;fill-rule:nonzero;fill:rgb(14.109802%,72.851563%,63.476563%);fill-opacity:1;" d="M 127.460938 289.601563 L 129.125 289.601563 L 129.125 210.398438 L 127.460938 210.398438 Z M 127.460938 289.601563 "/>
<path style=" stroke:none;fill-rule:nonzero;fill:rgb(14.109802%,72.851563%,63.476563%);fill-opacity:1;" d="M 200.339844 269.589844 L 198.015625 264.109375 L 195.691406 269.589844 Z M 201.132813 271.4375 L 194.914063 271.4375 L 193.734375 274.222656 L 191.570313 274.222656 L 197.011719 261.894531 L 199.144531 261.894531 L 204.53125 274.222656 L 202.3125 274.222656 "/>
<path style=" stroke:none;fill-rule:nonzero;fill:rgb(14.109802%,72.851563%,63.476563%);fill-opacity:1;" d="M 216.894531 261.894531 L 216.894531 263.757813 L 212.984375 263.757813 L 212.984375 274.222656 L 210.90625 274.222656 L 210.90625 263.757813 L 207.011719 263.757813 L 207.011719 261.894531 "/>
<path style=" stroke:none;fill-rule:nonzero;fill:rgb(14.109802%,72.851563%,63.476563%);fill-opacity:1;" d="M 230.609375 261.894531 L 230.609375 263.757813 L 226.699219 263.757813 L 226.699219 274.222656 L 224.621094 274.222656 L 224.621094 263.757813 L 220.730469 263.757813 L 220.730469 261.894531 "/>
<path style=" stroke:none;fill-rule:nonzero;fill:rgb(14.109802%,72.851563%,63.476563%);fill-opacity:1;" d="M 236.261719 268.058594 C 236.261719 270.503906 238.289063 272.441406 240.699219 272.441406 C 243.113281 272.441406 245.085938 270.503906 245.085938 268.058594 C 245.085938 265.609375 243.113281 263.707031 240.699219 263.707031 C 238.269531 263.707031 236.261719 265.609375 236.261719 268.058594 M 247.21875 268.058594 C 247.21875 271.578125 244.363281 274.308594 240.683594 274.308594 C 237.003906 274.308594 234.148438 271.578125 234.148438 268.058594 C 234.148438 264.515625 237.003906 261.839844 240.683594 261.839844 C 244.363281 261.839844 247.21875 264.535156 247.21875 268.058594 "/>
<path style=" stroke:none;fill-rule:nonzero;fill:rgb(14.109802%,72.851563%,63.476563%);fill-opacity:1;" d="M 257.957031 268.636719 C 259.859375 268.636719 260.953125 267.828125 260.953125 266.15625 C 260.953125 264.535156 259.859375 263.757813 257.957031 263.757813 L 255.035156 263.757813 L 255.035156 268.636719 Z M 260.773438 274.222656 L 258.519531 270.488281 C 258.347656 270.503906 258.152344 270.503906 257.957031 270.503906 L 255.035156 270.503906 L 255.035156 274.222656 L 252.957031 274.222656 L 252.957031 261.894531 L 257.957031 261.894531 C 261.109375 261.894531 262.925781 263.425781 262.925781 266.101563 C 262.925781 268.074219 262.007813 269.464844 260.371094 270.101563 L 263.136719 274.222656 "/>
<path style=" stroke:none;fill-rule:nonzero;fill:rgb(14.109802%,72.851563%,63.476563%);fill-opacity:1;" d="M 271.253906 261.894531 L 277.855469 270.75 L 277.855469 261.894531 L 279.898438 261.894531 L 279.898438 274.222656 L 277.855469 274.222656 L 271.285156 265.378906 L 271.285156 274.222656 L 269.210938 274.222656 L 269.210938 261.894531 "/>
<path style=" stroke:none;fill-rule:nonzero;fill:rgb(14.109802%,72.851563%,63.476563%);fill-opacity:1;" d="M 295.484375 261.894531 L 295.484375 263.757813 L 288.753906 263.757813 L 288.753906 267.105469 L 294.777344 267.105469 L 294.777344 268.953125 L 288.753906 268.953125 L 288.753906 272.355469 L 295.695313 272.355469 L 295.695313 274.222656 L 286.675781 274.222656 L 286.675781 261.894531 "/>
<path style=" stroke:none;fill-rule:nonzero;fill:rgb(14.109802%,72.851563%,63.476563%);fill-opacity:1;" d="M 306.804688 270.117188 L 306.804688 274.222656 L 304.742188 274.222656 L 304.742188 270.1875 L 300.148438 261.894531 L 302.242188 261.894531 L 305.765625 267.898438 L 309.21875 261.894531 L 311.332031 261.894531 "/>
<path style=" stroke:none;fill-rule:nonzero;fill:rgb(14.109802%,72.851563%,63.476563%);fill-opacity:1;" d="M 320.382813 263.757813 C 319.164063 263.757813 318.375 264.21875 318.375 265.046875 C 318.375 267.738281 325.03125 266.296875 325.015625 270.734375 C 325.015625 272.9375 323.074219 274.292969 320.363281 274.292969 C 318.425781 274.292969 316.59375 273.5 315.324219 272.335938 L 316.226563 270.539063 C 317.492188 271.703125 319.078125 272.335938 320.398438 272.335938 C 321.84375 272.335938 322.707031 271.789063 322.707031 270.839844 C 322.707031 268.09375 316.050781 269.625 316.050781 265.238281 C 316.050781 263.125 317.863281 261.804688 320.539063 261.804688 C 322.144531 261.804688 323.710938 262.316406 324.855469 263.070313 L 323.992188 264.902344 C 322.652344 264.09375 321.316406 263.757813 320.382813 263.757813 "/>
<path style=" stroke:none;fill-rule:nonzero;fill:rgb(14.109802%,72.851563%,63.476563%);fill-opacity:1;" d="M 346.9375 269.589844 L 344.613281 264.109375 L 342.289063 269.589844 Z M 347.730469 271.4375 L 341.511719 271.4375 L 340.332031 274.222656 L 338.164063 274.222656 L 343.609375 261.894531 L 345.738281 261.894531 L 351.128906 274.222656 L 348.910156 274.222656 "/>
<path style=" stroke:none;fill-rule:nonzero;fill:rgb(14.109802%,72.851563%,63.476563%);fill-opacity:1;" d="M 363.488281 261.894531 L 363.488281 263.757813 L 359.578125 263.757813 L 359.578125 274.222656 L 357.5 274.222656 L 357.5 263.757813 L 353.609375 263.757813 L 353.609375 261.894531 "/>
<path style=" stroke:none;fill-rule:nonzero;fill:rgb(14.109802%,72.851563%,63.476563%);fill-opacity:1;" d="M 379.671875 261.894531 L 379.671875 272.335938 L 385.007813 272.335938 L 385.007813 274.222656 L 377.59375 274.222656 L 377.59375 261.894531 "/>
<path style=" stroke:none;fill-rule:nonzero;fill:rgb(14.109802%,72.851563%,63.476563%);fill-opacity:1;" d="M 397.792969 269.589844 L 395.46875 264.109375 L 393.144531 269.589844 Z M 398.585938 271.4375 L 392.367188 271.4375 L 391.1875 274.222656 L 389.019531 274.222656 L 394.464844 261.894531 L 396.59375 261.894531 L 401.984375 274.222656 L 399.765625 274.222656 "/>
<path style=" stroke:none;fill-rule:nonzero;fill:rgb(14.109802%,72.851563%,63.476563%);fill-opacity:1;" d="M 406.945313 261.894531 L 409.941406 271.914063 L 412.917969 261.894531 L 414.960938 261.894531 L 417.953125 271.914063 L 420.929688 261.894531 L 423.082031 261.894531 L 418.960938 274.222656 L 416.828125 274.222656 L 413.902344 264.605469 L 410.945313 274.222656 L 408.796875 274.222656 L 404.710938 261.894531 "/>
<path style=" stroke:none;fill-rule:nonzero;fill:rgb(100%,100%,100%);fill-opacity:1;" d="M 157.734375 242.023438 C 157.734375 239.875 155.828125 238.558594 152.644531 238.59375 L 146.410156 238.59375 L 146.410156 245.519531 L 152.644531 245.519531 C 155.828125 245.554688 157.734375 244.273438 157.734375 242.023438 M 156.800781 231.738281 C 156.800781 229.730469 155.238281 228.585938 152.644531 228.621094 L 146.410156 228.621094 L 146.410156 234.992188 L 152.644531 234.992188 C 155.238281 234.992188 156.800781 233.816406 156.800781 231.738281 M 160.988281 231.011719 C 160.988281 233.710938 159.359375 235.753906 156.730469 236.410156 C 159.984375 236.96875 161.921875 239.285156 161.921875 242.542969 C 161.921875 246.695313 158.566406 249.1875 153.09375 249.1875 L 142.324219 249.1875 L 142.324219 224.949219 L 152.851563 224.949219 C 157.871094 224.949219 160.988281 227.238281 160.988281 231.011719 "/>
<path style=" stroke:none;fill-rule:nonzero;fill:rgb(100%,100%,100%);fill-opacity:1;" d="M 199.332031 238.214844 C 203.070313 238.214844 205.21875 236.621094 205.21875 233.332031 C 205.21875 230.144531 203.070313 228.621094 199.332031 228.621094 L 193.585938 228.621094 L 193.585938 238.214844 Z M 204.871094 249.191406 L 200.4375 241.847656 C 200.09375 241.882813 199.714844 241.882813 199.332031 241.882813 L 193.585938 241.882813 L 193.585938 249.191406 L 189.496094 249.191406 L 189.496094 224.949219 L 199.332031 224.949219 C 205.53125 224.949219 209.097656 227.964844 209.097656 233.226563 C 209.097656 237.105469 207.296875 239.839844 204.078125 241.085938 L 209.511719 249.191406 "/>
<path style=" stroke:none;fill-rule:nonzero;fill:rgb(100%,100%,100%);fill-opacity:1;" d="M 218.558594 224.949219 L 231.542969 242.367188 L 231.542969 224.949219 L 235.558594 224.949219 L 235.558594 249.1875 L 231.542969 249.1875 L 218.625 231.804688 L 218.625 249.1875 L 214.539063 249.1875 L 214.539063 224.949219 "/>
<path style=" stroke:none;fill-rule:nonzero;fill:rgb(100%,100%,100%);fill-opacity:1;" d="M 246.058594 224.949219 L 246.058594 235.476563 L 258.902344 235.476563 L 258.902344 224.949219 L 262.992188 224.949219 L 262.992188 249.1875 L 258.902344 249.1875 L 258.902344 239.148438 L 246.058594 239.148438 L 246.058594 249.1875 L 241.972656 249.1875 L 241.972656 224.949219 "/>
<path style=" stroke:none;fill-rule:nonzero;fill:rgb(100%,100%,100%);fill-opacity:1;" d="M 304.761719 238.214844 C 308.5 238.214844 310.648438 236.621094 310.648438 233.332031 C 310.648438 230.144531 308.5 228.621094 304.761719 228.621094 L 299.015625 228.621094 L 299.015625 238.214844 Z M 310.300781 249.191406 L 305.867188 241.847656 C 305.523438 241.882813 305.144531 241.882813 304.761719 241.882813 L 299.015625 241.882813 L 299.015625 249.191406 L 294.929688 249.191406 L 294.929688 224.949219 L 304.761719 224.949219 C 310.960938 224.949219 314.527344 227.964844 314.527344 233.226563 C 314.527344 237.105469 312.726563 239.839844 309.507813 241.085938 L 314.941406 249.191406 "/>
<path style=" stroke:none;fill-rule:nonzero;fill:rgb(100%,100%,100%);fill-opacity:1;" d="M 338.320313 237.105469 C 338.320313 232.152344 334.617188 228.621094 329.839844 228.621094 L 324.054688 228.621094 L 324.054688 245.519531 L 330.011719 245.519531 C 334.71875 245.519531 338.320313 242.023438 338.320313 237.105469 M 342.441406 237.070313 C 342.441406 244.066406 337.144531 249.191406 329.804688 249.191406 L 319.96875 249.191406 L 319.96875 224.949219 L 329.90625 224.949219 C 337.179688 224.949219 342.441406 230.042969 342.441406 237.070313 "/>
<path style=" stroke:none;fill-rule:nonzero;fill:rgb(100%,100%,100%);fill-opacity:1;" d="M 362.878906 224.949219 L 362.878906 228.621094 L 355.191406 228.621094 L 355.191406 249.1875 L 351.105469 249.1875 L 351.105469 228.621094 L 343.453125 228.621094 L 343.453125 224.949219 "/>
<path style=" stroke:none;fill-rule:nonzero;fill:rgb(100%,100%,100%);fill-opacity:1;" d="M 386.605469 238.214844 C 390.34375 238.214844 392.492188 236.621094 392.492188 233.332031 C 392.492188 230.144531 390.34375 228.621094 386.605469 228.621094 L 380.855469 228.621094 L 380.855469 238.214844 Z M 392.144531 249.191406 L 387.714844 241.847656 C 387.367188 241.882813 386.984375 241.882813 386.605469 241.882813 L 380.855469 241.882813 L 380.855469 249.191406 L 376.769531 249.191406 L 376.769531 224.949219 L 386.605469 224.949219 C 392.804688 224.949219 396.371094 227.964844 396.371094 233.226563 C 396.371094 237.105469 394.570313 239.839844 391.351563 241.085938 L 396.785156 249.191406 "/>
<path style=" stroke:none;fill-rule:nonzero;fill:rgb(100%,100%,100%);fill-opacity:1;" d="M 401.8125 249.191406 L 405.898438 249.191406 L 405.898438 224.953125 L 401.8125 224.953125 Z M 401.8125 249.191406 "/>
<path style=" stroke:none;fill-rule:nonzero;fill:rgb(100%,100%,100%);fill-opacity:1;" d="M 416.359375 224.949219 L 416.359375 245.484375 L 426.851563 245.484375 L 426.851563 249.1875 L 412.273438 249.1875 L 412.273438 224.949219 "/>
<path style=" stroke:none;fill-rule:nonzero;fill:rgb(100%,100%,100%);fill-opacity:1;" d="M 463.425781 241.121094 L 463.425781 249.1875 L 459.375 249.1875 L 459.375 241.261719 L 450.339844 224.949219 L 454.460938 224.949219 L 461.382813 236.757813 L 468.171875 224.949219 L 472.324219 224.949219 "/>
<path style=" stroke:none;fill-rule:nonzero;fill:rgb(14.109802%,72.851563%,63.476563%);fill-opacity:1;" d="M 430.769531 228.621094 L 448.082031 228.621094 L 448.082031 224.949219 L 430.769531 224.949219 Z M 430.769531 228.621094 "/>
<path style=" stroke:none;fill-rule:nonzero;fill:rgb(100%,100%,100%);fill-opacity:1;" d="M 434.855469 245.519531 L 434.855469 238.835938 L 446.695313 238.835938 L 446.695313 235.199219 L 430.769531 235.199219 L 430.769531 249.191406 L 448.496094 249.191406 L 448.496094 245.519531 "/>
<path style=" stroke:none;fill-rule:nonzero;fill:rgb(14.109802%,72.851563%,63.476563%);fill-opacity:1;" d="M 166.777344 228.621094 L 184.089844 228.621094 L 184.089844 224.949219 L 166.777344 224.949219 Z M 166.777344 228.621094 "/>
<path style=" stroke:none;fill-rule:nonzero;fill:rgb(100%,100%,100%);fill-opacity:1;" d="M 170.863281 245.519531 L 170.863281 238.835938 L 182.707031 238.835938 L 182.707031 235.199219 L 166.777344 235.199219 L 166.777344 249.191406 L 184.507813 249.191406 L 184.507813 245.519531 "/>
<path style=" stroke:none;fill-rule:nonzero;fill:rgb(100%,100%,100%);fill-opacity:1;" d="M 283.476563 240.054688 L 278.890625 229.253906 L 274.308594 240.054688 Z M 285.039063 243.703125 L 272.777344 243.703125 L 270.453125 249.191406 L 266.179688 249.191406 L 276.910156 224.878906 L 281.113281 224.878906 L 291.738281 249.191406 L 287.363281 249.191406 "/>
<path style=" stroke:none;fill-rule:nonzero;fill:rgb(14.109802%,72.851563%,63.476563%);fill-opacity:1;" d="M 434.546875 268.054688 L 472.324219 268.054688 L 472.324219 266.390625 L 434.546875 266.390625 Z M 434.546875 268.054688 "/>
<path style=" stroke:none;fill-rule:nonzero;fill:rgb(14.109802%,72.851563%,63.476563%);fill-opacity:1;" d="M 142.324219 268.054688 L 180.101563 268.054688 L 180.101563 266.390625 L 142.324219 266.390625 Z M 142.324219 268.054688 "/>
<path style=" stroke:none;fill-rule:nonzero;fill:rgb(3.921509%,39.598083%,69.334412%);fill-opacity:1;" d="M 38.78125 234.886719 C 37.921875 234.886719 37.222656 235.585938 37.222656 236.445313 L 37.222656 276.03125 C 37.222656 276.894531 37.921875 277.589844 38.78125 277.589844 C 39.640625 277.589844 40.339844 276.894531 40.339844 276.03125 L 40.339844 236.445313 C 40.339844 235.585938 39.640625 234.886719 38.78125 234.886719 "/>
<path style=" stroke:none;fill-rule:nonzero;fill:rgb(3.921509%,39.598083%,69.334412%);fill-opacity:1;" d="M 63.074219 278.089844 C 61.199219 278.089844 59.324219 278.003906 57.117188 277.113281 C 54.507813 276.054688 54.269531 274.675781 54.269531 269.308594 L 54.269531 249.792969 L 57.699219 249.804688 C 57.875 249.8125 58.046875 249.816406 58.25 249.828125 C 61.320313 249.984375 72.949219 253.660156 72.949219 267.683594 C 72.949219 276.136719 66.746094 278.089844 63.074219 278.089844 M 50.785156 276.03125 C 50.785156 276.894531 50.089844 277.589844 49.226563 277.589844 L 48.859375 277.589844 C 48 277.589844 47.304688 276.894531 47.304688 276.03125 L 47.304688 236.445313 C 47.304688 235.585938 48 234.886719 48.859375 234.886719 L 49.226563 234.886719 C 50.089844 234.886719 50.785156 235.585938 50.785156 236.445313 Z M 77.046875 251.210938 C 75.242188 249.792969 71.777344 247.488281 68.683594 246.371094 C 76.695313 241.386719 76.609375 233.070313 75.976563 229.289063 C 75.644531 226.503906 74.003906 224.25 72.277344 222.621094 C 70.171875 220.648438 67.453125 219.777344 65.15625 219.777344 L 57.351563 219.777344 L 57.351563 219.800781 L 27.675781 219.800781 C 27.675781 219.800781 28.40625 224.984375 33.378906 224.984375 L 57.601563 224.984375 C 57.601563 224.984375 65.515625 224.992188 67.546875 232.730469 C 68.730469 236.867188 67.824219 241.601563 64.367188 244.394531 C 62.972656 245.617188 61.082031 245.871094 58.675781 245.871094 C 58.292969 245.871094 57.957031 245.863281 57.628906 245.855469 L 54.269531 245.851563 L 54.269531 227.867188 L 30.699219 227.867188 C 30.699219 227.867188 31.527344 232.21875 34.808594 232.21875 L 39.589844 232.21875 C 41.917969 232.21875 43.8125 234.113281 43.8125 236.445313 L 43.8125 276.03125 C 43.8125 278.230469 42.121094 280.019531 39.976563 280.21875 L 39.976563 280.222656 L 35.09375 280.222656 L 35.09375 280.199219 L 33.550781 280.199219 C 31.363281 280.199219 30.695313 282.878906 30.609375 283.273438 L 59.183594 283.273438 C 59.835938 283.300781 60.378906 283.324219 60.730469 283.324219 C 70.625 283.324219 76.933594 279.398438 80.085938 274.234375 C 83.027344 269.910156 86.421875 260.429688 77.046875 251.210938 "/>
<path style=" stroke:none;fill-rule:nonzero;fill:rgb(14.109802%,72.851563%,63.476563%);fill-opacity:1;" d="M 120.46875 283.414063 C 113.65625 282.191406 108.386719 275.390625 104.152344 269.921875 C 102.519531 267.816406 101.109375 265.992188 99.839844 264.804688 C 97.40625 262.074219 93.59375 258.816406 90.996094 257.863281 L 88.164063 256.824219 L 91.230469 256.824219 C 99.929688 256.824219 106.765625 251.9375 110.0625 245.953125 C 110.039063 246.03125 110.015625 246.109375 109.988281 246.183594 C 111.570313 243.421875 112.507813 239.972656 112.507813 236.226563 C 112.507813 224.242188 103.75 219.777344 96.1875 219.777344 L 73.53125 219.777344 C 74.015625 220.097656 74.488281 220.449219 74.929688 220.863281 C 76.183594 222.050781 77.390625 223.570313 78.085938 225.382813 C 84.8125 225.382813 90.207031 225.386719 90.4375 225.394531 C 102.671875 226.085938 104.324219 238.070313 101.875 243.949219 C 97.710938 254.464844 86.671875 254.730469 82.652344 254.820313 C 82.382813 254.824219 82.121094 254.832031 81.863281 254.835938 C 84.953125 257.675781 94.414063 268.925781 94.414063 268.925781 C 103.789063 279.894531 107.871094 283.488281 120.421875 284.085938 L 120.675781 284.097656 L 120.675781 283.453125 "/>
</g>
</svg>
