<?xml version="1.0" encoding="UTF-8"?>
<svg xmlns="http://www.w3.org/2000/svg" xmlns:xlink="http://www.w3.org/1999/xlink" width="444.65pt" height="79.2pt" viewBox="0 0 444.65 79.2" version="1.1">
<defs>
<clipPath id="clip1">
  <path d="M 99 0 L 102 0 L 102 79.199219 L 99 79.199219 Z M 99 0 "/>
</clipPath>
<clipPath id="clip2">
  <path d="M 422 14 L 444.648438 14 L 444.648438 39 L 422 39 Z M 422 14 "/>
</clipPath>
<clipPath id="clip3">
  <path d="M 406 55 L 444.648438 55 L 444.648438 58 L 406 58 Z M 406 55 "/>
</clipPath>
</defs>
<g id="surface1">
<g clip-path="url(#clip1)" clip-rule="nonzero">
<path style=" stroke:none;fill-rule:nonzero;fill:rgb(14.109802%,72.851563%,63.476563%);fill-opacity:1;" d="M 99.785156 79.199219 L 101.449219 79.199219 L 101.449219 -0.00390625 L 99.785156 -0.00390625 Z M 99.785156 79.199219 "/>
</g>
<path style=" stroke:none;fill-rule:nonzero;fill:rgb(14.109802%,72.851563%,63.476563%);fill-opacity:1;" d="M 172.664063 59.1875 L 170.339844 53.710938 L 168.015625 59.1875 Z M 173.460938 61.035156 L 167.242188 61.035156 L 166.0625 63.820313 L 163.894531 63.820313 L 169.335938 51.492188 L 171.46875 51.492188 L 176.855469 63.820313 L 174.640625 63.820313 "/>
<path style=" stroke:none;fill-rule:nonzero;fill:rgb(14.109802%,72.851563%,63.476563%);fill-opacity:1;" d="M 189.21875 51.492188 L 189.21875 53.355469 L 185.308594 53.355469 L 185.308594 63.820313 L 183.230469 63.820313 L 183.230469 53.355469 L 179.339844 53.355469 L 179.339844 51.492188 "/>
<path style=" stroke:none;fill-rule:nonzero;fill:rgb(14.109802%,72.851563%,63.476563%);fill-opacity:1;" d="M 202.9375 51.492188 L 202.9375 53.355469 L 199.027344 53.355469 L 199.027344 63.820313 L 196.949219 63.820313 L 196.949219 53.355469 L 193.054688 53.355469 L 193.054688 51.492188 "/>
<path style=" stroke:none;fill-rule:nonzero;fill:rgb(14.109802%,72.851563%,63.476563%);fill-opacity:1;" d="M 208.589844 57.65625 C 208.589844 60.101563 210.613281 62.039063 213.027344 62.039063 C 215.4375 62.039063 217.410156 60.101563 217.410156 57.65625 C 217.410156 55.207031 215.4375 53.304688 213.027344 53.304688 C 210.597656 53.304688 208.589844 55.207031 208.589844 57.65625 M 219.542969 57.65625 C 219.542969 61.175781 216.691406 63.90625 213.007813 63.90625 C 209.328125 63.90625 206.472656 61.175781 206.472656 57.65625 C 206.472656 54.113281 209.328125 51.4375 213.007813 51.4375 C 216.691406 51.4375 219.542969 54.132813 219.542969 57.65625 "/>
<path style=" stroke:none;fill-rule:nonzero;fill:rgb(14.109802%,72.851563%,63.476563%);fill-opacity:1;" d="M 230.28125 58.234375 C 232.183594 58.234375 233.277344 57.425781 233.277344 55.753906 C 233.277344 54.132813 232.183594 53.355469 230.28125 53.355469 L 227.359375 53.355469 L 227.359375 58.234375 Z M 233.101563 63.820313 L 230.847656 60.085938 C 230.671875 60.101563 230.476563 60.101563 230.28125 60.101563 L 227.359375 60.101563 L 227.359375 63.820313 L 225.28125 63.820313 L 225.28125 51.492188 L 230.28125 51.492188 C 233.433594 51.492188 235.25 53.023438 235.25 55.699219 C 235.25 57.671875 234.335938 59.0625 232.695313 59.699219 L 235.460938 63.820313 "/>
<path style=" stroke:none;fill-rule:nonzero;fill:rgb(14.109802%,72.851563%,63.476563%);fill-opacity:1;" d="M 243.578125 51.492188 L 250.179688 60.347656 L 250.179688 51.492188 L 252.226563 51.492188 L 252.226563 63.820313 L 250.179688 63.820313 L 243.613281 54.976563 L 243.613281 63.820313 L 241.535156 63.820313 L 241.535156 51.492188 "/>
<path style=" stroke:none;fill-rule:nonzero;fill:rgb(14.109802%,72.851563%,63.476563%);fill-opacity:1;" d="M 267.808594 51.492188 L 267.808594 53.355469 L 261.078125 53.355469 L 261.078125 56.703125 L 267.105469 56.703125 L 267.105469 58.550781 L 261.078125 58.550781 L 261.078125 61.953125 L 268.019531 61.953125 L 268.019531 63.820313 L 259.003906 63.820313 L 259.003906 51.492188 "/>
<path style=" stroke:none;fill-rule:nonzero;fill:rgb(14.109802%,72.851563%,63.476563%);fill-opacity:1;" d="M 279.132813 59.714844 L 279.132813 63.820313 L 277.070313 63.820313 L 277.070313 59.785156 L 272.472656 51.488281 L 274.570313 51.488281 L 278.089844 57.496094 L 281.542969 51.488281 L 283.65625 51.488281 "/>
<path style=" stroke:none;fill-rule:nonzero;fill:rgb(14.109802%,72.851563%,63.476563%);fill-opacity:1;" d="M 292.707031 53.355469 C 291.492188 53.355469 290.699219 53.816406 290.699219 54.644531 C 290.699219 57.339844 297.355469 55.894531 297.339844 60.332031 C 297.339844 62.535156 295.402344 63.890625 292.6875 63.890625 C 290.753906 63.890625 288.921875 63.097656 287.652344 61.933594 L 288.550781 60.136719 C 289.816406 61.300781 291.402344 61.933594 292.726563 61.933594 C 294.167969 61.933594 295.03125 61.390625 295.03125 60.4375 C 295.03125 57.691406 288.375 59.222656 288.375 54.835938 C 288.375 52.722656 290.1875 51.402344 292.863281 51.402344 C 294.46875 51.402344 296.035156 51.914063 297.179688 52.667969 L 296.316406 54.503906 C 294.976563 53.691406 293.640625 53.355469 292.707031 53.355469 "/>
<path style=" stroke:none;fill-rule:nonzero;fill:rgb(14.109802%,72.851563%,63.476563%);fill-opacity:1;" d="M 319.261719 59.1875 L 316.9375 53.710938 L 314.613281 59.1875 Z M 320.054688 61.035156 L 313.835938 61.035156 L 312.65625 63.820313 L 310.492188 63.820313 L 315.933594 51.492188 L 318.0625 51.492188 L 323.453125 63.820313 L 321.234375 63.820313 "/>
<path style=" stroke:none;fill-rule:nonzero;fill:rgb(14.109802%,72.851563%,63.476563%);fill-opacity:1;" d="M 335.816406 51.492188 L 335.816406 53.355469 L 331.90625 53.355469 L 331.90625 63.820313 L 329.824219 63.820313 L 329.824219 53.355469 L 325.933594 53.355469 L 325.933594 51.492188 "/>
<path style=" stroke:none;fill-rule:nonzero;fill:rgb(14.109802%,72.851563%,63.476563%);fill-opacity:1;" d="M 351.996094 51.492188 L 351.996094 61.933594 L 357.332031 61.933594 L 357.332031 63.820313 L 349.917969 63.820313 L 349.917969 51.492188 "/>
<path style=" stroke:none;fill-rule:nonzero;fill:rgb(14.109802%,72.851563%,63.476563%);fill-opacity:1;" d="M 370.117188 59.1875 L 367.792969 53.710938 L 365.46875 59.1875 Z M 370.910156 61.035156 L 364.691406 61.035156 L 363.511719 63.820313 L 361.347656 63.820313 L 366.789063 51.492188 L 368.921875 51.492188 L 374.308594 63.820313 L 372.089844 63.820313 "/>
<path style=" stroke:none;fill-rule:nonzero;fill:rgb(14.109802%,72.851563%,63.476563%);fill-opacity:1;" d="M 379.273438 51.492188 L 382.265625 61.511719 L 385.242188 51.492188 L 387.285156 51.492188 L 390.28125 61.511719 L 393.257813 51.492188 L 395.40625 51.492188 L 391.285156 63.820313 L 389.152344 63.820313 L 386.230469 54.203125 L 383.269531 63.820313 L 381.121094 63.820313 L 377.035156 51.492188 "/>
<path style=" stroke:none;fill-rule:nonzero;fill:rgb(100%,100%,100%);fill-opacity:1;" d="M 130.058594 31.621094 C 130.058594 29.472656 128.15625 28.15625 124.96875 28.191406 L 118.734375 28.191406 L 118.734375 35.117188 L 124.96875 35.117188 C 128.15625 35.152344 130.058594 33.871094 130.058594 31.621094 M 129.125 21.335938 C 129.125 19.328125 127.566406 18.183594 124.96875 18.21875 L 118.734375 18.21875 L 118.734375 24.589844 L 124.96875 24.589844 C 127.566406 24.589844 129.125 23.414063 129.125 21.335938 M 133.3125 20.609375 C 133.3125 23.308594 131.6875 25.351563 129.054688 26.011719 C 132.308594 26.566406 134.246094 28.886719 134.246094 32.140625 C 134.246094 36.292969 130.890625 38.789063 125.417969 38.789063 L 114.648438 38.789063 L 114.648438 14.546875 L 125.175781 14.546875 C 130.195313 14.546875 133.3125 16.835938 133.3125 20.609375 "/>
<path style=" stroke:none;fill-rule:nonzero;fill:rgb(100%,100%,100%);fill-opacity:1;" d="M 171.65625 27.8125 C 175.394531 27.8125 177.542969 26.21875 177.542969 22.929688 C 177.542969 19.742188 175.394531 18.21875 171.65625 18.21875 L 165.910156 18.21875 L 165.910156 27.8125 Z M 177.195313 38.789063 L 172.765625 31.449219 C 172.417969 31.480469 172.039063 31.480469 171.65625 31.480469 L 165.910156 31.480469 L 165.910156 38.789063 L 161.824219 38.789063 L 161.824219 14.546875 L 171.65625 14.546875 C 177.855469 14.546875 181.421875 17.5625 181.421875 22.828125 C 181.421875 26.703125 179.621094 29.4375 176.402344 30.683594 L 181.835938 38.789063 "/>
<path style=" stroke:none;fill-rule:nonzero;fill:rgb(100%,100%,100%);fill-opacity:1;" d="M 190.882813 14.546875 L 203.867188 31.964844 L 203.867188 14.546875 L 207.882813 14.546875 L 207.882813 38.789063 L 203.867188 38.789063 L 190.949219 21.40625 L 190.949219 38.789063 L 186.863281 38.789063 L 186.863281 14.546875 "/>
<path style=" stroke:none;fill-rule:nonzero;fill:rgb(100%,100%,100%);fill-opacity:1;" d="M 218.382813 14.546875 L 218.382813 25.074219 L 231.226563 25.074219 L 231.226563 14.546875 L 235.316406 14.546875 L 235.316406 38.789063 L 231.226563 38.789063 L 231.226563 28.746094 L 218.382813 28.746094 L 218.382813 38.789063 L 214.296875 38.789063 L 214.296875 14.546875 "/>
<path style=" stroke:none;fill-rule:nonzero;fill:rgb(100%,100%,100%);fill-opacity:1;" d="M 277.089844 27.8125 C 280.824219 27.8125 282.972656 26.21875 282.972656 22.929688 C 282.972656 19.742188 280.824219 18.21875 277.089844 18.21875 L 271.339844 18.21875 L 271.339844 27.8125 Z M 282.628906 38.789063 L 278.195313 31.449219 C 277.847656 31.480469 277.46875 31.480469 277.089844 31.480469 L 271.339844 31.480469 L 271.339844 38.789063 L 267.253906 38.789063 L 267.253906 14.546875 L 277.089844 14.546875 C 283.285156 14.546875 286.851563 17.5625 286.851563 22.828125 C 286.851563 26.703125 285.050781 29.4375 281.832031 30.683594 L 287.265625 38.789063 "/>
<path style=" stroke:none;fill-rule:nonzero;fill:rgb(100%,100%,100%);fill-opacity:1;" d="M 310.648438 26.703125 C 310.648438 21.75 306.941406 18.21875 302.164063 18.21875 L 296.378906 18.21875 L 296.378906 35.117188 L 302.335938 35.117188 C 307.046875 35.117188 310.648438 31.621094 310.648438 26.703125 M 314.769531 26.667969 C 314.769531 33.664063 309.46875 38.789063 302.128906 38.789063 L 292.296875 38.789063 L 292.296875 14.546875 L 302.234375 14.546875 C 309.503906 14.546875 314.769531 19.640625 314.769531 26.667969 "/>
<path style=" stroke:none;fill-rule:nonzero;fill:rgb(100%,100%,100%);fill-opacity:1;" d="M 335.203125 14.546875 L 335.203125 18.21875 L 327.515625 18.21875 L 327.515625 38.789063 L 323.433594 38.789063 L 323.433594 18.21875 L 315.777344 18.21875 L 315.777344 14.546875 "/>
<path style=" stroke:none;fill-rule:nonzero;fill:rgb(100%,100%,100%);fill-opacity:1;" d="M 358.929688 27.8125 C 362.671875 27.8125 364.816406 26.21875 364.816406 22.929688 C 364.816406 19.742188 362.671875 18.21875 358.929688 18.21875 L 353.183594 18.21875 L 353.183594 27.8125 Z M 364.472656 38.789063 L 360.039063 31.449219 C 359.691406 31.480469 359.3125 31.480469 358.929688 31.480469 L 353.183594 31.480469 L 353.183594 38.789063 L 349.097656 38.789063 L 349.097656 14.546875 L 358.929688 14.546875 C 365.128906 14.546875 368.695313 17.5625 368.695313 22.828125 C 368.695313 26.703125 366.894531 29.4375 363.675781 30.683594 L 369.109375 38.789063 "/>
<path style=" stroke:none;fill-rule:nonzero;fill:rgb(100%,100%,100%);fill-opacity:1;" d="M 374.136719 38.789063 L 378.222656 38.789063 L 378.222656 14.546875 L 374.136719 14.546875 Z M 374.136719 38.789063 "/>
<path style=" stroke:none;fill-rule:nonzero;fill:rgb(100%,100%,100%);fill-opacity:1;" d="M 388.683594 14.546875 L 388.683594 35.082031 L 399.175781 35.082031 L 399.175781 38.789063 L 384.597656 38.789063 L 384.597656 14.546875 "/>
<g clip-path="url(#clip2)" clip-rule="nonzero">
<path style=" stroke:none;fill-rule:nonzero;fill:rgb(100%,100%,100%);fill-opacity:1;" d="M 435.753906 30.71875 L 435.753906 38.789063 L 431.699219 38.789063 L 431.699219 30.859375 L 422.664063 14.546875 L 426.785156 14.546875 L 433.710938 26.355469 L 440.496094 14.546875 L 444.648438 14.546875 "/>
</g>
<path style=" stroke:none;fill-rule:nonzero;fill:rgb(14.109802%,72.851563%,63.476563%);fill-opacity:1;" d="M 403.09375 18.21875 L 420.40625 18.21875 L 420.40625 14.546875 L 403.09375 14.546875 Z M 403.09375 18.21875 "/>
<path style=" stroke:none;fill-rule:nonzero;fill:rgb(100%,100%,100%);fill-opacity:1;" d="M 407.179688 35.117188 L 407.179688 28.433594 L 419.019531 28.433594 L 419.019531 24.796875 L 403.09375 24.796875 L 403.09375 38.789063 L 420.824219 38.789063 L 420.824219 35.117188 "/>
<path style=" stroke:none;fill-rule:nonzero;fill:rgb(14.109802%,72.851563%,63.476563%);fill-opacity:1;" d="M 139.101563 18.21875 L 156.414063 18.21875 L 156.414063 14.546875 L 139.101563 14.546875 Z M 139.101563 18.21875 "/>
<path style=" stroke:none;fill-rule:nonzero;fill:rgb(100%,100%,100%);fill-opacity:1;" d="M 143.1875 35.117188 L 143.1875 28.433594 L 155.03125 28.433594 L 155.03125 24.796875 L 139.101563 24.796875 L 139.101563 38.789063 L 156.832031 38.789063 L 156.832031 35.117188 "/>
<path style=" stroke:none;fill-rule:nonzero;fill:rgb(100%,100%,100%);fill-opacity:1;" d="M 255.800781 29.652344 L 251.214844 18.851563 L 246.632813 29.652344 Z M 257.363281 33.300781 L 245.101563 33.300781 L 242.777344 38.789063 L 238.503906 38.789063 L 249.238281 14.476563 L 253.4375 14.476563 L 264.066406 38.789063 L 259.6875 38.789063 "/>
<g clip-path="url(#clip3)" clip-rule="nonzero">
<path style=" stroke:none;fill-rule:nonzero;fill:rgb(14.109802%,72.851563%,63.476563%);fill-opacity:1;" d="M 406.871094 57.652344 L 444.648438 57.652344 L 444.648438 55.988281 L 406.871094 55.988281 Z M 406.871094 57.652344 "/>
</g>
<path style=" stroke:none;fill-rule:nonzero;fill:rgb(14.109802%,72.851563%,63.476563%);fill-opacity:1;" d="M 114.648438 57.652344 L 152.429688 57.652344 L 152.429688 55.988281 L 114.648438 55.988281 Z M 114.648438 57.652344 "/>
<path style=" stroke:none;fill-rule:nonzero;fill:rgb(3.921509%,39.598083%,69.334412%);fill-opacity:1;" d="M 11.105469 24.484375 C 10.246094 24.484375 9.550781 25.183594 9.550781 26.042969 L 9.550781 65.632813 C 9.550781 66.492188 10.246094 67.1875 11.105469 67.1875 C 11.96875 67.1875 12.664063 66.492188 12.664063 65.632813 L 12.664063 26.042969 C 12.664063 25.183594 11.96875 24.484375 11.105469 24.484375 "/>
<path style=" stroke:none;fill-rule:nonzero;fill:rgb(3.921509%,39.598083%,69.334412%);fill-opacity:1;" d="M 35.398438 67.6875 C 33.527344 67.6875 31.652344 67.601563 29.445313 66.710938 C 26.832031 65.652344 26.59375 64.273438 26.59375 58.90625 L 26.59375 39.390625 L 30.027344 39.402344 C 30.199219 39.410156 30.375 39.414063 30.578125 39.425781 C 33.644531 39.582031 45.273438 43.257813 45.273438 57.28125 C 45.273438 65.734375 39.070313 67.6875 35.398438 67.6875 M 23.109375 65.632813 C 23.109375 66.492188 22.414063 67.1875 21.554688 67.1875 L 21.1875 67.1875 C 20.328125 67.1875 19.628906 66.492188 19.628906 65.632813 L 19.628906 26.042969 C 19.628906 25.183594 20.328125 24.484375 21.1875 24.484375 L 21.554688 24.484375 C 22.414063 24.484375 23.109375 25.183594 23.109375 26.042969 Z M 49.375 40.808594 C 47.566406 39.390625 44.101563 37.085938 41.007813 35.96875 C 49.019531 30.984375 48.9375 22.667969 48.300781 18.886719 C 47.96875 16.101563 46.328125 13.847656 44.601563 12.21875 C 42.496094 10.246094 39.777344 9.375 37.480469 9.375 L 29.675781 9.375 L 29.675781 9.398438 L 0 9.398438 C 0 9.398438 0.734375 14.582031 5.703125 14.582031 L 29.925781 14.582031 C 29.925781 14.582031 37.839844 14.589844 39.871094 22.328125 C 41.054688 26.46875 40.152344 31.199219 36.691406 33.992188 C 35.296875 35.214844 33.40625 35.46875 31 35.46875 C 30.617188 35.46875 30.28125 35.460938 29.953125 35.457031 L 26.59375 35.449219 L 26.59375 17.464844 L 3.023438 17.464844 C 3.023438 17.464844 3.851563 21.816406 7.132813 21.816406 L 11.914063 21.816406 C 14.242188 21.816406 16.136719 23.710938 16.136719 26.042969 L 16.136719 65.632813 C 16.136719 67.828125 14.449219 69.617188 12.300781 69.816406 L 12.300781 69.820313 L 7.421875 69.820313 L 7.421875 69.796875 L 5.875 69.796875 C 3.6875 69.796875 3.019531 72.476563 2.933594 72.871094 L 31.507813 72.871094 C 32.160156 72.898438 32.703125 72.921875 33.054688 72.921875 C 42.953125 72.921875 49.257813 68.996094 52.410156 63.832031 C 55.347656 59.507813 58.746094 50.027344 49.375 40.808594 "/>
<path style=" stroke:none;fill-rule:nonzero;fill:rgb(14.109802%,72.851563%,63.476563%);fill-opacity:1;" d="M 92.796875 73.011719 C 85.980469 71.789063 80.710938 64.988281 76.476563 59.519531 C 74.84375 57.414063 73.433594 55.59375 72.164063 54.402344 C 69.734375 51.675781 65.917969 48.414063 63.320313 47.460938 L 60.488281 46.421875 L 63.554688 46.421875 C 72.253906 46.421875 79.089844 41.535156 82.386719 35.554688 C 82.363281 35.628906 82.339844 35.707031 82.316406 35.78125 C 83.894531 33.019531 84.835938 29.570313 84.835938 25.824219 C 84.835938 13.839844 76.074219 9.375 68.511719 9.375 L 45.855469 9.375 C 46.339844 9.695313 46.8125 10.046875 47.253906 10.460938 C 48.511719 11.648438 49.714844 13.167969 50.410156 14.980469 C 57.140625 14.980469 62.53125 14.984375 62.765625 14.992188 C 74.996094 15.683594 76.648438 27.667969 74.199219 33.546875 C 70.035156 44.0625 58.996094 44.332031 54.976563 44.417969 C 54.710938 44.425781 54.445313 44.429688 54.191406 44.433594 C 57.277344 47.277344 66.738281 58.523438 66.738281 58.523438 C 76.113281 69.492188 80.199219 73.085938 92.746094 73.683594 L 93 73.695313 L 93 73.050781 "/>
</g>
</svg>
