<?xml version="1.0" encoding="UTF-8"?>
<svg xmlns="http://www.w3.org/2000/svg" xmlns:xlink="http://www.w3.org/1999/xlink" width="500pt" height="500pt" viewBox="0 0 500 500" version="1.1">
<g id="surface1">
<rect x="0" y="0" width="500" height="500" style="fill:rgb(2.745056%,5.488586%,19.604492%);fill-opacity:1;stroke:none;"/>
<path style=" stroke:none;fill-rule:nonzero;fill:rgb(14.109802%,72.851563%,63.476563%);fill-opacity:1;" d="M 102.167969 342.828125 L 98.957031 335.261719 L 95.742188 342.828125 Z M 103.261719 345.382813 L 94.671875 345.382813 L 93.039063 349.230469 L 90.046875 349.230469 L 97.566406 332.191406 L 100.511719 332.191406 L 107.960938 349.230469 L 104.894531 349.230469 "/>
<path style=" stroke:none;fill-rule:nonzero;fill:rgb(14.109802%,72.851563%,63.476563%);fill-opacity:1;" d="M 125.039063 332.191406 L 125.039063 334.773438 L 119.636719 334.773438 L 119.636719 349.230469 L 116.765625 349.230469 L 116.765625 334.773438 L 111.386719 334.773438 L 111.386719 332.191406 "/>
<path style=" stroke:none;fill-rule:nonzero;fill:rgb(14.109802%,72.851563%,63.476563%);fill-opacity:1;" d="M 143.996094 332.191406 L 143.996094 334.773438 L 138.59375 334.773438 L 138.59375 349.230469 L 135.722656 349.230469 L 135.722656 334.773438 L 130.34375 334.773438 L 130.34375 332.191406 "/>
<path style=" stroke:none;fill-rule:nonzero;fill:rgb(14.109802%,72.851563%,63.476563%);fill-opacity:1;" d="M 151.804688 340.710938 C 151.804688 344.09375 154.601563 346.773438 157.9375 346.773438 C 161.269531 346.773438 163.996094 344.09375 163.996094 340.710938 C 163.996094 337.328125 161.269531 334.699219 157.9375 334.699219 C 154.578125 334.699219 151.804688 337.328125 151.804688 340.710938 M 166.941406 340.710938 C 166.941406 345.578125 163 349.351563 157.914063 349.351563 C 152.824219 349.351563 148.882813 345.578125 148.882813 340.710938 C 148.882813 335.820313 152.824219 332.121094 157.914063 332.121094 C 163 332.121094 166.941406 335.84375 166.941406 340.710938 "/>
<path style=" stroke:none;fill-rule:nonzero;fill:rgb(14.109802%,72.851563%,63.476563%);fill-opacity:1;" d="M 181.78125 341.515625 C 184.410156 341.515625 185.921875 340.394531 185.921875 338.082031 C 185.921875 335.84375 184.410156 334.773438 181.78125 334.773438 L 177.742188 334.773438 L 177.742188 341.515625 Z M 185.675781 349.230469 L 182.5625 344.070313 C 182.320313 344.09375 182.050781 344.09375 181.78125 344.09375 L 177.742188 344.09375 L 177.742188 349.230469 L 174.871094 349.230469 L 174.871094 332.195313 L 181.78125 332.195313 C 186.140625 332.195313 188.644531 334.3125 188.644531 338.011719 C 188.644531 340.734375 187.382813 342.660156 185.117188 343.535156 L 188.9375 349.230469 "/>
<path style=" stroke:none;fill-rule:nonzero;fill:rgb(14.109802%,72.851563%,63.476563%);fill-opacity:1;" d="M 200.152344 332.191406 L 209.28125 344.433594 L 209.28125 332.191406 L 212.101563 332.191406 L 212.101563 349.230469 L 209.28125 349.230469 L 200.203125 337.011719 L 200.203125 349.230469 L 197.328125 349.230469 L 197.328125 332.191406 "/>
<path style=" stroke:none;fill-rule:nonzero;fill:rgb(14.109802%,72.851563%,63.476563%);fill-opacity:1;" d="M 233.636719 332.191406 L 233.636719 334.773438 L 224.339844 334.773438 L 224.339844 339.398438 L 232.664063 339.398438 L 232.664063 341.953125 L 224.339844 341.953125 L 224.339844 346.648438 L 233.929688 346.648438 L 233.929688 349.230469 L 221.46875 349.230469 L 221.46875 332.191406 "/>
<path style=" stroke:none;fill-rule:nonzero;fill:rgb(14.109802%,72.851563%,63.476563%);fill-opacity:1;" d="M 249.28125 343.558594 L 249.28125 349.230469 L 246.433594 349.230469 L 246.433594 343.65625 L 240.082031 332.195313 L 242.976563 332.195313 L 247.847656 340.492188 L 252.617188 332.195313 L 255.535156 332.195313 "/>
<path style=" stroke:none;fill-rule:nonzero;fill:rgb(14.109802%,72.851563%,63.476563%);fill-opacity:1;" d="M 268.042969 334.773438 C 266.363281 334.773438 265.269531 335.40625 265.269531 336.550781 C 265.269531 340.273438 274.46875 338.277344 274.441406 344.410156 C 274.441406 347.453125 271.765625 349.328125 268.019531 349.328125 C 265.339844 349.328125 262.808594 348.230469 261.058594 346.625 L 262.296875 344.144531 C 264.050781 345.75 266.242188 346.625 268.066406 346.625 C 270.0625 346.625 271.253906 345.871094 271.253906 344.558594 C 271.253906 340.757813 262.054688 342.878906 262.054688 336.816406 C 262.054688 333.894531 264.5625 332.070313 268.261719 332.070313 C 270.476563 332.070313 272.640625 332.777344 274.222656 333.824219 L 273.03125 336.355469 C 271.183594 335.234375 269.332031 334.773438 268.042969 334.773438 "/>
<path style=" stroke:none;fill-rule:nonzero;fill:rgb(14.109802%,72.851563%,63.476563%);fill-opacity:1;" d="M 304.734375 342.828125 L 301.523438 335.261719 L 298.308594 342.828125 Z M 305.832031 345.382813 L 297.238281 345.382813 L 295.609375 349.230469 L 292.617188 349.230469 L 300.136719 332.191406 L 303.082031 332.191406 L 310.527344 349.230469 L 307.460938 349.230469 "/>
<path style=" stroke:none;fill-rule:nonzero;fill:rgb(14.109802%,72.851563%,63.476563%);fill-opacity:1;" d="M 327.609375 332.191406 L 327.609375 334.773438 L 322.207031 334.773438 L 322.207031 349.230469 L 319.335938 349.230469 L 319.335938 334.773438 L 313.957031 334.773438 L 313.957031 332.191406 "/>
<path style=" stroke:none;fill-rule:nonzero;fill:rgb(14.109802%,72.851563%,63.476563%);fill-opacity:1;" d="M 349.96875 332.191406 L 349.96875 346.625 L 357.34375 346.625 L 357.34375 349.230469 L 347.097656 349.230469 L 347.097656 332.191406 "/>
<path style=" stroke:none;fill-rule:nonzero;fill:rgb(14.109802%,72.851563%,63.476563%);fill-opacity:1;" d="M 375.007813 342.828125 L 371.796875 335.261719 L 368.585938 342.828125 Z M 376.105469 345.382813 L 367.511719 345.382813 L 365.882813 349.230469 L 362.890625 349.230469 L 370.410156 332.191406 L 373.355469 332.191406 L 380.800781 349.230469 L 377.734375 349.230469 "/>
<path style=" stroke:none;fill-rule:nonzero;fill:rgb(14.109802%,72.851563%,63.476563%);fill-opacity:1;" d="M 387.660156 332.191406 L 391.796875 346.039063 L 395.910156 332.191406 L 398.734375 332.191406 L 402.871094 346.039063 L 406.984375 332.191406 L 409.953125 332.191406 L 404.257813 349.230469 L 401.3125 349.230469 L 397.273438 335.941406 L 393.183594 349.230469 L 390.214844 349.230469 L 384.570313 332.191406 "/>
<path style=" stroke:none;fill-rule:nonzero;fill:rgb(100%,100%,100%);fill-opacity:1;" d="M 43.292969 304.734375 C 43.292969 301.769531 40.660156 299.949219 36.257813 300 L 27.644531 300 L 27.644531 309.566406 L 36.257813 309.566406 C 40.660156 309.617188 43.292969 307.84375 43.292969 304.734375 M 42 290.523438 C 42 287.75 39.847656 286.171875 36.257813 286.21875 L 27.644531 286.21875 L 27.644531 295.023438 L 36.257813 295.023438 C 39.847656 295.023438 42 293.394531 42 290.523438 M 47.789063 289.519531 C 47.789063 293.253906 45.539063 296.074219 41.902344 296.984375 C 46.402344 297.75 49.082031 300.957031 49.082031 305.453125 C 49.082031 311.195313 44.441406 314.640625 36.878906 314.640625 L 22 314.640625 L 22 281.144531 L 36.546875 281.144531 C 43.480469 281.144531 47.789063 284.304688 47.789063 289.519531 "/>
<path style=" stroke:none;fill-rule:nonzero;fill:rgb(100%,100%,100%);fill-opacity:1;" d="M 100.773438 299.472656 C 105.941406 299.472656 108.90625 297.273438 108.90625 292.726563 C 108.90625 288.324219 105.941406 286.21875 100.773438 286.21875 L 92.832031 286.21875 L 92.832031 299.472656 Z M 108.429688 314.640625 L 102.304688 304.496094 C 101.824219 304.542969 101.300781 304.542969 100.773438 304.542969 L 92.832031 304.542969 L 92.832031 314.640625 L 87.183594 314.640625 L 87.183594 281.148438 L 100.773438 281.148438 C 109.339844 281.148438 114.265625 285.308594 114.265625 292.582031 C 114.265625 297.941406 111.777344 301.722656 107.328125 303.445313 L 114.839844 314.640625 "/>
<path style=" stroke:none;fill-rule:nonzero;fill:rgb(100%,100%,100%);fill-opacity:1;" d="M 127.339844 281.144531 L 145.28125 305.214844 L 145.28125 281.144531 L 150.832031 281.144531 L 150.832031 314.640625 L 145.28125 314.640625 L 127.433594 290.621094 L 127.433594 314.640625 L 121.789063 314.640625 L 121.789063 281.144531 "/>
<path style=" stroke:none;fill-rule:nonzero;fill:rgb(100%,100%,100%);fill-opacity:1;" d="M 165.339844 281.144531 L 165.339844 295.691406 L 183.089844 295.691406 L 183.089844 281.144531 L 188.738281 281.144531 L 188.738281 314.640625 L 183.089844 314.640625 L 183.089844 300.765625 L 165.339844 300.765625 L 165.339844 314.640625 L 159.691406 314.640625 L 159.691406 281.144531 "/>
<path style=" stroke:none;fill-rule:nonzero;fill:rgb(100%,100%,100%);fill-opacity:1;" d="M 246.460938 299.472656 C 251.625 299.472656 254.59375 297.273438 254.59375 292.726563 C 254.59375 288.324219 251.625 286.21875 246.460938 286.21875 L 238.515625 286.21875 L 238.515625 299.472656 Z M 254.113281 314.640625 L 247.988281 304.496094 C 247.507813 304.542969 246.984375 304.542969 246.460938 304.542969 L 238.515625 304.542969 L 238.515625 314.640625 L 232.871094 314.640625 L 232.871094 281.148438 L 246.460938 281.148438 C 255.023438 281.148438 259.953125 285.308594 259.953125 292.582031 C 259.953125 297.941406 257.464844 301.722656 253.015625 303.445313 L 260.523438 314.640625 "/>
<path style=" stroke:none;fill-rule:nonzero;fill:rgb(100%,100%,100%);fill-opacity:1;" d="M 292.832031 297.941406 C 292.832031 291.097656 287.710938 286.21875 281.109375 286.21875 L 273.117188 286.21875 L 273.117188 309.566406 L 281.351563 309.566406 C 287.855469 309.566406 292.832031 304.734375 292.832031 297.941406 M 298.527344 297.894531 C 298.527344 307.558594 291.203125 314.640625 281.0625 314.640625 L 267.472656 314.640625 L 267.472656 281.144531 L 281.207031 281.144531 C 291.253906 281.144531 298.527344 288.179688 298.527344 297.894531 "/>
<path style=" stroke:none;fill-rule:nonzero;fill:rgb(100%,100%,100%);fill-opacity:1;" d="M 326.765625 281.144531 L 326.765625 286.21875 L 316.144531 286.21875 L 316.144531 314.640625 L 310.496094 314.640625 L 310.496094 286.21875 L 299.921875 286.21875 L 299.921875 281.144531 "/>
<path style=" stroke:none;fill-rule:nonzero;fill:rgb(100%,100%,100%);fill-opacity:1;" d="M 359.550781 299.472656 C 364.71875 299.472656 367.683594 297.273438 367.683594 292.726563 C 367.683594 288.324219 364.71875 286.21875 359.550781 286.21875 L 351.609375 286.21875 L 351.609375 299.472656 Z M 367.207031 314.640625 L 361.082031 304.496094 C 360.601563 304.542969 360.074219 304.542969 359.550781 304.542969 L 351.609375 304.542969 L 351.609375 314.640625 L 345.960938 314.640625 L 345.960938 281.148438 L 359.550781 281.148438 C 368.113281 281.148438 373.042969 285.308594 373.042969 292.582031 C 373.042969 297.941406 370.554688 301.722656 366.105469 303.445313 L 373.617188 314.640625 "/>
<path style=" stroke:none;fill-rule:nonzero;fill:rgb(100%,100%,100%);fill-opacity:1;" d="M 380.566406 314.640625 L 386.210938 314.640625 L 386.210938 281.148438 L 380.566406 281.148438 Z M 380.566406 314.640625 "/>
<path style=" stroke:none;fill-rule:nonzero;fill:rgb(100%,100%,100%);fill-opacity:1;" d="M 400.664063 281.144531 L 400.664063 309.519531 L 415.160156 309.519531 L 415.160156 314.640625 L 395.015625 314.640625 L 395.015625 281.144531 "/>
<path style=" stroke:none;fill-rule:nonzero;fill:rgb(100%,100%,100%);fill-opacity:1;" d="M 465.703125 303.492188 L 465.703125 314.640625 L 460.105469 314.640625 L 460.105469 303.683594 L 447.617188 281.144531 L 453.3125 281.144531 L 462.882813 297.464844 L 472.261719 281.144531 L 478 281.144531 "/>
<path style=" stroke:none;fill-rule:nonzero;fill:rgb(14.109802%,72.851563%,63.476563%);fill-opacity:1;" d="M 420.574219 286.21875 L 444.5 286.21875 L 444.5 281.144531 L 420.574219 281.144531 Z M 420.574219 286.21875 "/>
<path style=" stroke:none;fill-rule:nonzero;fill:rgb(100%,100%,100%);fill-opacity:1;" d="M 426.222656 309.566406 L 426.222656 300.335938 L 442.585938 300.335938 L 442.585938 295.308594 L 420.574219 295.308594 L 420.574219 314.640625 L 445.074219 314.640625 L 445.074219 309.566406 "/>
<path style=" stroke:none;fill-rule:nonzero;fill:rgb(14.109802%,72.851563%,63.476563%);fill-opacity:1;" d="M 55.789063 286.21875 L 79.714844 286.21875 L 79.714844 281.144531 L 55.789063 281.144531 Z M 55.789063 286.21875 "/>
<path style=" stroke:none;fill-rule:nonzero;fill:rgb(100%,100%,100%);fill-opacity:1;" d="M 61.433594 309.566406 L 61.433594 300.335938 L 77.796875 300.335938 L 77.796875 295.308594 L 55.789063 295.308594 L 55.789063 314.640625 L 80.289063 314.640625 L 80.289063 309.566406 "/>
<path style=" stroke:none;fill-rule:nonzero;fill:rgb(100%,100%,100%);fill-opacity:1;" d="M 217.042969 302.019531 L 210.710938 287.09375 L 204.375 302.019531 Z M 219.203125 307.058594 L 202.257813 307.058594 L 199.046875 314.640625 L 193.144531 314.640625 L 207.972656 281.046875 L 213.78125 281.046875 L 228.464844 314.640625 L 222.414063 314.640625 "/>
<path style=" stroke:none;fill-rule:nonzero;fill:rgb(14.109802%,72.851563%,63.476563%);fill-opacity:1;" d="M 425.796875 340.707031 L 478 340.707031 L 478 338.40625 L 425.796875 338.40625 Z M 425.796875 340.707031 "/>
<path style=" stroke:none;fill-rule:nonzero;fill:rgb(14.109802%,72.851563%,63.476563%);fill-opacity:1;" d="M 22 340.707031 L 74.203125 340.707031 L 74.203125 338.40625 L 22 338.40625 Z M 22 340.707031 "/>
<path style=" stroke:none;fill-rule:nonzero;fill:rgb(3.921509%,39.598083%,69.334412%);fill-opacity:1;" d="M 191.085938 175.800781 C 189.652344 175.800781 188.492188 176.964844 188.492188 178.394531 L 188.492188 244.296875 C 188.492188 245.726563 189.652344 246.886719 191.085938 246.886719 C 192.515625 246.886719 193.679688 245.726563 193.679688 244.296875 L 193.679688 178.394531 C 193.679688 176.964844 192.515625 175.800781 191.085938 175.800781 "/>
<path style=" stroke:none;fill-rule:nonzero;fill:rgb(3.921509%,39.598083%,69.334412%);fill-opacity:1;" d="M 231.519531 247.714844 C 228.402344 247.714844 225.28125 247.574219 221.605469 246.089844 C 217.261719 244.332031 216.863281 242.03125 216.863281 233.101563 L 216.863281 200.613281 L 222.578125 200.632813 C 222.867188 200.644531 223.15625 200.65625 223.492188 200.675781 C 228.601563 200.933594 247.960938 207.050781 247.960938 230.398438 C 247.960938 244.464844 237.632813 247.714844 231.519531 247.714844 M 211.066406 244.292969 C 211.066406 245.726563 209.90625 246.886719 208.472656 246.886719 L 207.863281 246.886719 C 206.433594 246.886719 205.269531 245.726563 205.269531 244.292969 L 205.269531 178.394531 C 205.269531 176.960938 206.433594 175.800781 207.863281 175.800781 L 208.472656 175.800781 C 209.90625 175.800781 211.066406 176.960938 211.066406 178.394531 Z M 254.78125 202.972656 C 251.777344 200.613281 246.003906 196.777344 240.859375 194.917969 C 254.195313 186.617188 254.054688 172.777344 252.996094 166.480469 C 252.445313 161.84375 249.714844 158.09375 246.839844 155.382813 C 243.335938 152.097656 238.808594 150.648438 234.984375 150.648438 L 221.996094 150.648438 L 221.996094 150.6875 L 172.597656 150.6875 C 172.597656 150.6875 173.816406 159.320313 182.089844 159.320313 L 222.414063 159.320313 C 222.414063 159.320313 235.585938 159.328125 238.964844 172.210938 C 240.933594 179.101563 239.429688 186.976563 233.671875 191.628906 C 231.355469 193.664063 228.207031 194.082031 224.199219 194.082031 C 223.5625 194.082031 223.003906 194.074219 222.457031 194.0625 L 216.863281 194.054688 L 216.863281 164.117188 L 177.632813 164.117188 C 177.632813 164.117188 179.003906 171.359375 184.472656 171.359375 L 192.425781 171.359375 C 196.304688 171.359375 199.460938 174.515625 199.460938 178.394531 L 199.460938 244.292969 C 199.460938 247.949219 196.644531 250.929688 193.074219 251.261719 L 193.074219 251.265625 L 184.949219 251.265625 L 184.949219 251.230469 L 182.371094 251.230469 C 178.734375 251.230469 177.625 255.6875 177.480469 256.34375 L 225.046875 256.34375 L 225.046875 256.339844 C 226.132813 256.394531 227.035156 256.429688 227.621094 256.429688 C 244.09375 256.429688 254.589844 249.898438 259.839844 241.300781 C 264.730469 234.097656 270.382813 218.320313 254.78125 202.972656 "/>
<path style=" stroke:none;fill-rule:nonzero;fill:rgb(14.109802%,72.851563%,63.476563%);fill-opacity:1;" d="M 327.0625 256.582031 C 315.722656 254.546875 306.949219 243.222656 299.898438 234.121094 C 297.179688 230.613281 294.835938 227.582031 292.722656 225.601563 C 288.675781 221.0625 282.324219 215.640625 278 214.046875 L 273.289063 212.316406 L 278.390625 212.316406 C 292.867188 212.316406 304.253906 204.183594 309.738281 194.226563 C 309.699219 194.351563 309.660156 194.480469 309.617188 194.605469 C 312.246094 190.007813 313.8125 184.265625 313.8125 178.03125 C 313.8125 158.082031 299.230469 150.648438 286.640625 150.648438 L 248.925781 150.648438 C 249.730469 151.179688 250.519531 151.769531 251.253906 152.457031 C 253.347656 154.429688 255.351563 156.960938 256.507813 159.980469 C 267.710938 159.976563 276.6875 159.984375 277.074219 160.003906 C 297.433594 161.152344 300.1875 181.101563 296.109375 190.886719 C 289.175781 208.394531 270.804688 208.835938 264.109375 208.980469 C 263.664063 208.992188 263.226563 209 262.796875 209.007813 C 267.941406 213.738281 283.691406 232.460938 283.691406 232.460938 C 299.296875 250.71875 306.09375 256.703125 326.984375 257.695313 L 327.40625 257.714844 L 327.40625 256.644531 "/>
</g>
</svg>
