<?xml version="1.0" encoding="UTF-8"?>
<svg xmlns="http://www.w3.org/2000/svg" xmlns:xlink="http://www.w3.org/1999/xlink" width="456pt" height="198.7pt" viewBox="0 0 456 198.7" version="1.1">
<defs>
<clipPath id="clip1">
  <path d="M 68 181 L 86 181 L 86 198.699219 L 68 198.699219 Z M 68 181 "/>
</clipPath>
<clipPath id="clip2">
  <path d="M 89 181 L 104 181 L 104 198.699219 L 89 198.699219 Z M 89 181 "/>
</clipPath>
<clipPath id="clip3">
  <path d="M 108 181 L 122 181 L 122 198.699219 L 108 198.699219 Z M 108 181 "/>
</clipPath>
<clipPath id="clip4">
  <path d="M 126 181 L 145 181 L 145 198.699219 L 126 198.699219 Z M 126 181 "/>
</clipPath>
<clipPath id="clip5">
  <path d="M 152 181 L 167 181 L 167 198.699219 L 152 198.699219 Z M 152 181 "/>
</clipPath>
<clipPath id="clip6">
  <path d="M 175 181 L 191 181 L 191 198.699219 L 175 198.699219 Z M 175 181 "/>
</clipPath>
<clipPath id="clip7">
  <path d="M 199 181 L 212 181 L 212 198.699219 L 199 198.699219 Z M 199 181 "/>
</clipPath>
<clipPath id="clip8">
  <path d="M 218 181 L 234 181 L 234 198.699219 L 218 198.699219 Z M 218 181 "/>
</clipPath>
<clipPath id="clip9">
  <path d="M 239 181 L 253 181 L 253 198.699219 L 239 198.699219 Z M 239 181 "/>
</clipPath>
<clipPath id="clip10">
  <path d="M 270 181 L 289 181 L 289 198.699219 L 270 198.699219 Z M 270 181 "/>
</clipPath>
<clipPath id="clip11">
  <path d="M 291 181 L 306 181 L 306 198.699219 L 291 198.699219 Z M 291 181 "/>
</clipPath>
<clipPath id="clip12">
  <path d="M 325 181 L 336 181 L 336 198.699219 L 325 198.699219 Z M 325 181 "/>
</clipPath>
<clipPath id="clip13">
  <path d="M 340 181 L 359 181 L 359 198.699219 L 340 198.699219 Z M 340 181 "/>
</clipPath>
<clipPath id="clip14">
  <path d="M 362 181 L 388 181 L 388 198.699219 L 362 198.699219 Z M 362 181 "/>
</clipPath>
</defs>
<g id="surface1">
<g clip-path="url(#clip1)" clip-rule="nonzero">
<path style=" stroke:none;fill-rule:nonzero;fill:rgb(14.109802%,72.851563%,63.476563%);fill-opacity:1;" d="M 80.167969 192.179688 L 76.957031 184.609375 L 73.742188 192.179688 Z M 81.261719 194.734375 L 72.671875 194.734375 L 71.039063 198.578125 L 68.046875 198.578125 L 75.566406 181.542969 L 78.511719 181.542969 L 85.960938 198.578125 L 82.894531 198.578125 "/>
</g>
<g clip-path="url(#clip2)" clip-rule="nonzero">
<path style=" stroke:none;fill-rule:nonzero;fill:rgb(14.109802%,72.851563%,63.476563%);fill-opacity:1;" d="M 103.039063 181.542969 L 103.039063 184.121094 L 97.636719 184.121094 L 97.636719 198.578125 L 94.765625 198.578125 L 94.765625 184.121094 L 89.386719 184.121094 L 89.386719 181.542969 "/>
</g>
<g clip-path="url(#clip3)" clip-rule="nonzero">
<path style=" stroke:none;fill-rule:nonzero;fill:rgb(14.109802%,72.851563%,63.476563%);fill-opacity:1;" d="M 121.996094 181.542969 L 121.996094 184.121094 L 116.59375 184.121094 L 116.59375 198.578125 L 113.722656 198.578125 L 113.722656 184.121094 L 108.34375 184.121094 L 108.34375 181.542969 "/>
</g>
<g clip-path="url(#clip4)" clip-rule="nonzero">
<path style=" stroke:none;fill-rule:nonzero;fill:rgb(14.109802%,72.851563%,63.476563%);fill-opacity:1;" d="M 129.804688 190.058594 C 129.804688 193.441406 132.605469 196.121094 135.9375 196.121094 C 139.273438 196.121094 141.996094 193.441406 141.996094 190.058594 C 141.996094 186.675781 139.273438 184.046875 135.9375 184.046875 C 132.578125 184.046875 129.804688 186.675781 129.804688 190.058594 M 144.941406 190.058594 C 144.941406 194.925781 141 198.699219 135.914063 198.699219 C 130.824219 198.699219 126.882813 194.925781 126.882813 190.058594 C 126.882813 185.167969 130.824219 181.46875 135.914063 181.46875 C 141 181.46875 144.941406 185.191406 144.941406 190.058594 "/>
</g>
<g clip-path="url(#clip5)" clip-rule="nonzero">
<path style=" stroke:none;fill-rule:nonzero;fill:rgb(14.109802%,72.851563%,63.476563%);fill-opacity:1;" d="M 159.78125 190.863281 C 162.410156 190.863281 163.921875 189.742188 163.921875 187.429688 C 163.921875 185.191406 162.410156 184.121094 159.78125 184.121094 L 155.742188 184.121094 L 155.742188 190.863281 Z M 163.679688 198.578125 L 160.5625 193.417969 C 160.320313 193.441406 160.050781 193.441406 159.78125 193.441406 L 155.742188 193.441406 L 155.742188 198.578125 L 152.871094 198.578125 L 152.871094 181.542969 L 159.78125 181.542969 C 164.140625 181.542969 166.644531 183.660156 166.644531 187.359375 C 166.644531 190.085938 165.382813 192.007813 163.117188 192.882813 L 166.9375 198.578125 "/>
</g>
<g clip-path="url(#clip6)" clip-rule="nonzero">
<path style=" stroke:none;fill-rule:nonzero;fill:rgb(14.109802%,72.851563%,63.476563%);fill-opacity:1;" d="M 178.152344 181.542969 L 187.28125 193.785156 L 187.28125 181.542969 L 190.101563 181.542969 L 190.101563 198.578125 L 187.28125 198.578125 L 178.203125 186.359375 L 178.203125 198.578125 L 175.332031 198.578125 L 175.332031 181.542969 "/>
</g>
<g clip-path="url(#clip7)" clip-rule="nonzero">
<path style=" stroke:none;fill-rule:nonzero;fill:rgb(14.109802%,72.851563%,63.476563%);fill-opacity:1;" d="M 211.636719 181.542969 L 211.636719 184.121094 L 202.339844 184.121094 L 202.339844 188.746094 L 210.664063 188.746094 L 210.664063 191.300781 L 202.339844 191.300781 L 202.339844 196 L 211.929688 196 L 211.929688 198.578125 L 199.46875 198.578125 L 199.46875 181.542969 "/>
</g>
<g clip-path="url(#clip8)" clip-rule="nonzero">
<path style=" stroke:none;fill-rule:nonzero;fill:rgb(14.109802%,72.851563%,63.476563%);fill-opacity:1;" d="M 227.28125 192.90625 L 227.28125 198.578125 L 224.433594 198.578125 L 224.433594 193.003906 L 218.082031 181.542969 L 220.976563 181.542969 L 225.84375 189.839844 L 230.617188 181.542969 L 233.535156 181.542969 "/>
</g>
<g clip-path="url(#clip9)" clip-rule="nonzero">
<path style=" stroke:none;fill-rule:nonzero;fill:rgb(14.109802%,72.851563%,63.476563%);fill-opacity:1;" d="M 246.042969 184.121094 C 244.363281 184.121094 243.269531 184.753906 243.269531 185.898438 C 243.269531 189.621094 252.46875 187.625 252.441406 193.757813 C 252.441406 196.800781 249.765625 198.675781 246.019531 198.675781 C 243.339844 198.675781 240.808594 197.582031 239.058594 195.976563 L 240.296875 193.492188 C 242.050781 195.097656 244.242188 195.976563 246.066406 195.976563 C 248.0625 195.976563 249.253906 195.21875 249.253906 193.90625 C 249.253906 190.109375 240.054688 192.226563 240.054688 186.167969 C 240.054688 183.246094 242.5625 181.421875 246.261719 181.421875 C 248.476563 181.421875 250.640625 182.125 252.222656 183.171875 L 251.03125 185.703125 C 249.183594 184.585938 247.332031 184.121094 246.042969 184.121094 "/>
</g>
<g clip-path="url(#clip10)" clip-rule="nonzero">
<path style=" stroke:none;fill-rule:nonzero;fill:rgb(14.109802%,72.851563%,63.476563%);fill-opacity:1;" d="M 282.734375 192.179688 L 279.523438 184.609375 L 276.308594 192.179688 Z M 283.832031 194.734375 L 275.238281 194.734375 L 273.609375 198.578125 L 270.617188 198.578125 L 278.136719 181.542969 L 281.082031 181.542969 L 288.527344 198.578125 L 285.460938 198.578125 "/>
</g>
<g clip-path="url(#clip11)" clip-rule="nonzero">
<path style=" stroke:none;fill-rule:nonzero;fill:rgb(14.109802%,72.851563%,63.476563%);fill-opacity:1;" d="M 305.609375 181.542969 L 305.609375 184.121094 L 300.207031 184.121094 L 300.207031 198.578125 L 297.335938 198.578125 L 297.335938 184.121094 L 291.957031 184.121094 L 291.957031 181.542969 "/>
</g>
<g clip-path="url(#clip12)" clip-rule="nonzero">
<path style=" stroke:none;fill-rule:nonzero;fill:rgb(14.109802%,72.851563%,63.476563%);fill-opacity:1;" d="M 327.96875 181.542969 L 327.96875 195.972656 L 335.34375 195.972656 L 335.34375 198.578125 L 325.097656 198.578125 L 325.097656 181.542969 "/>
</g>
<g clip-path="url(#clip13)" clip-rule="nonzero">
<path style=" stroke:none;fill-rule:nonzero;fill:rgb(14.109802%,72.851563%,63.476563%);fill-opacity:1;" d="M 353.007813 192.179688 L 349.796875 184.609375 L 346.585938 192.179688 Z M 354.105469 194.734375 L 345.511719 194.734375 L 343.882813 198.578125 L 340.890625 198.578125 L 348.410156 181.542969 L 351.355469 181.542969 L 358.800781 198.578125 L 355.734375 198.578125 "/>
</g>
<g clip-path="url(#clip14)" clip-rule="nonzero">
<path style=" stroke:none;fill-rule:nonzero;fill:rgb(14.109802%,72.851563%,63.476563%);fill-opacity:1;" d="M 365.660156 181.542969 L 369.796875 195.390625 L 373.910156 181.542969 L 376.734375 181.542969 L 380.871094 195.390625 L 384.984375 181.542969 L 387.953125 181.542969 L 382.257813 198.578125 L 379.3125 198.578125 L 375.273438 185.289063 L 371.183594 198.578125 L 368.214844 198.578125 L 362.570313 181.542969 "/>
</g>
<path style=" stroke:none;fill-rule:nonzero;fill:rgb(100%,100%,100%);fill-opacity:1;" d="M 21.292969 154.085938 C 21.292969 151.117188 18.660156 149.300781 14.257813 149.347656 L 5.644531 149.347656 L 5.644531 158.917969 L 14.257813 158.917969 C 18.660156 158.964844 21.292969 157.195313 21.292969 154.085938 M 20 139.875 C 20 137.097656 17.847656 135.519531 14.257813 135.566406 L 5.644531 135.566406 L 5.644531 144.371094 L 14.257813 144.371094 C 17.847656 144.371094 20 142.746094 20 139.875 M 25.789063 138.871094 C 25.789063 142.601563 23.539063 145.425781 19.902344 146.332031 C 24.402344 147.097656 27.082031 150.304688 27.082031 154.800781 C 27.082031 160.542969 22.441406 163.988281 14.882813 163.988281 L 0 163.988281 L 0 130.496094 L 14.542969 130.496094 C 21.480469 130.496094 25.789063 133.652344 25.789063 138.871094 "/>
<path style=" stroke:none;fill-rule:nonzero;fill:rgb(100%,100%,100%);fill-opacity:1;" d="M 78.773438 148.820313 C 83.941406 148.820313 86.90625 146.621094 86.90625 142.074219 C 86.90625 137.671875 83.941406 135.566406 78.773438 135.566406 L 70.832031 135.566406 L 70.832031 148.820313 Z M 86.429688 163.988281 L 80.304688 153.84375 C 79.824219 153.894531 79.296875 153.894531 78.773438 153.894531 L 70.832031 153.894531 L 70.832031 163.988281 L 65.183594 163.988281 L 65.183594 130.496094 L 78.773438 130.496094 C 87.335938 130.496094 92.265625 134.65625 92.265625 141.929688 C 92.265625 147.289063 89.777344 151.070313 85.328125 152.792969 L 92.839844 163.988281 "/>
<path style=" stroke:none;fill-rule:nonzero;fill:rgb(100%,100%,100%);fill-opacity:1;" d="M 105.339844 130.496094 L 123.28125 154.5625 L 123.28125 130.496094 L 128.832031 130.496094 L 128.832031 163.988281 L 123.28125 163.988281 L 105.433594 139.96875 L 105.433594 163.988281 L 99.789063 163.988281 L 99.789063 130.496094 "/>
<path style=" stroke:none;fill-rule:nonzero;fill:rgb(100%,100%,100%);fill-opacity:1;" d="M 143.339844 130.496094 L 143.339844 145.042969 L 161.089844 145.042969 L 161.089844 130.496094 L 166.734375 130.496094 L 166.734375 163.988281 L 161.089844 163.988281 L 161.089844 150.113281 L 143.339844 150.113281 L 143.339844 163.988281 L 137.691406 163.988281 L 137.691406 130.496094 "/>
<path style=" stroke:none;fill-rule:nonzero;fill:rgb(100%,100%,100%);fill-opacity:1;" d="M 224.460938 148.820313 C 229.625 148.820313 232.59375 146.621094 232.59375 142.074219 C 232.59375 137.671875 229.625 135.566406 224.460938 135.566406 L 216.515625 135.566406 L 216.515625 148.820313 Z M 232.113281 163.988281 L 225.988281 153.84375 C 225.511719 153.894531 224.984375 153.894531 224.460938 153.894531 L 216.515625 153.894531 L 216.515625 163.988281 L 210.867188 163.988281 L 210.867188 130.496094 L 224.460938 130.496094 C 233.023438 130.496094 237.949219 134.65625 237.949219 141.929688 C 237.949219 147.289063 235.464844 151.070313 231.015625 152.792969 L 238.523438 163.988281 "/>
<path style=" stroke:none;fill-rule:nonzero;fill:rgb(100%,100%,100%);fill-opacity:1;" d="M 270.832031 147.289063 C 270.832031 140.449219 265.710938 135.566406 259.109375 135.566406 L 251.117188 135.566406 L 251.117188 158.917969 L 259.351563 158.917969 C 265.855469 158.917969 270.832031 154.085938 270.832031 147.289063 M 276.527344 147.242188 C 276.527344 156.90625 269.203125 163.988281 259.0625 163.988281 L 245.472656 163.988281 L 245.472656 130.496094 L 259.207031 130.496094 C 269.253906 130.496094 276.527344 137.53125 276.527344 147.242188 "/>
<path style=" stroke:none;fill-rule:nonzero;fill:rgb(100%,100%,100%);fill-opacity:1;" d="M 304.765625 130.496094 L 304.765625 135.566406 L 294.144531 135.566406 L 294.144531 163.988281 L 288.496094 163.988281 L 288.496094 135.566406 L 277.921875 135.566406 L 277.921875 130.496094 "/>
<path style=" stroke:none;fill-rule:nonzero;fill:rgb(100%,100%,100%);fill-opacity:1;" d="M 337.550781 148.820313 C 342.71875 148.820313 345.683594 146.621094 345.683594 142.074219 C 345.683594 137.671875 342.71875 135.566406 337.550781 135.566406 L 329.609375 135.566406 L 329.609375 148.820313 Z M 345.207031 163.988281 L 339.082031 153.84375 C 338.601563 153.894531 338.074219 153.894531 337.550781 153.894531 L 329.609375 153.894531 L 329.609375 163.988281 L 323.960938 163.988281 L 323.960938 130.496094 L 337.550781 130.496094 C 346.113281 130.496094 351.042969 134.65625 351.042969 141.929688 C 351.042969 147.289063 348.554688 151.070313 344.105469 152.792969 L 351.617188 163.988281 "/>
<path style=" stroke:none;fill-rule:nonzero;fill:rgb(100%,100%,100%);fill-opacity:1;" d="M 358.566406 163.988281 L 364.210938 163.988281 L 364.210938 130.496094 L 358.566406 130.496094 Z M 358.566406 163.988281 "/>
<path style=" stroke:none;fill-rule:nonzero;fill:rgb(100%,100%,100%);fill-opacity:1;" d="M 378.664063 130.496094 L 378.664063 158.871094 L 393.160156 158.871094 L 393.160156 163.988281 L 373.015625 163.988281 L 373.015625 130.496094 "/>
<path style=" stroke:none;fill-rule:nonzero;fill:rgb(100%,100%,100%);fill-opacity:1;" d="M 443.703125 152.839844 L 443.703125 163.988281 L 438.105469 163.988281 L 438.105469 153.03125 L 425.617188 130.496094 L 431.3125 130.496094 L 440.882813 146.8125 L 450.261719 130.496094 L 456 130.496094 "/>
<path style=" stroke:none;fill-rule:nonzero;fill:rgb(14.109802%,72.851563%,63.476563%);fill-opacity:1;" d="M 398.574219 135.566406 L 422.5 135.566406 L 422.5 130.496094 L 398.574219 130.496094 Z M 398.574219 135.566406 "/>
<path style=" stroke:none;fill-rule:nonzero;fill:rgb(100%,100%,100%);fill-opacity:1;" d="M 404.222656 158.917969 L 404.222656 149.683594 L 420.585938 149.683594 L 420.585938 144.660156 L 398.574219 144.660156 L 398.574219 163.988281 L 423.074219 163.988281 L 423.074219 158.917969 "/>
<path style=" stroke:none;fill-rule:nonzero;fill:rgb(14.109802%,72.851563%,63.476563%);fill-opacity:1;" d="M 33.789063 135.566406 L 57.714844 135.566406 L 57.714844 130.496094 L 33.789063 130.496094 Z M 33.789063 135.566406 "/>
<path style=" stroke:none;fill-rule:nonzero;fill:rgb(100%,100%,100%);fill-opacity:1;" d="M 39.433594 158.917969 L 39.433594 149.683594 L 55.796875 149.683594 L 55.796875 144.660156 L 33.789063 144.660156 L 33.789063 163.988281 L 58.289063 163.988281 L 58.289063 158.917969 "/>
<path style=" stroke:none;fill-rule:nonzero;fill:rgb(100%,100%,100%);fill-opacity:1;" d="M 195.042969 151.367188 L 188.707031 136.441406 L 182.375 151.367188 Z M 197.203125 156.410156 L 180.257813 156.410156 L 177.046875 163.988281 L 171.144531 163.988281 L 185.972656 130.394531 L 191.78125 130.394531 L 206.464844 163.988281 L 200.414063 163.988281 "/>
<path style=" stroke:none;fill-rule:nonzero;fill:rgb(14.109802%,72.851563%,63.476563%);fill-opacity:1;" d="M 403.796875 190.054688 L 456 190.054688 L 456 187.757813 L 403.796875 187.757813 Z M 403.796875 190.054688 "/>
<path style=" stroke:none;fill-rule:nonzero;fill:rgb(14.109802%,72.851563%,63.476563%);fill-opacity:1;" d="M 0 190.054688 L 52.203125 190.054688 L 52.203125 187.757813 L 0 187.757813 Z M 0 190.054688 "/>
<path style=" stroke:none;fill-rule:nonzero;fill:rgb(3.921509%,39.598083%,69.334412%);fill-opacity:1;" d="M 169.085938 25.152344 C 167.652344 25.152344 166.492188 26.3125 166.492188 27.742188 L 166.492188 93.644531 C 166.492188 95.074219 167.652344 96.234375 169.085938 96.234375 C 170.515625 96.234375 171.679688 95.074219 171.679688 93.644531 L 171.679688 27.742188 C 171.679688 26.3125 170.515625 25.152344 169.085938 25.152344 "/>
<path style=" stroke:none;fill-rule:nonzero;fill:rgb(3.921509%,39.598083%,69.334412%);fill-opacity:1;" d="M 209.519531 97.066406 C 206.402344 97.066406 203.28125 96.925781 199.605469 95.441406 C 195.261719 93.679688 194.863281 91.378906 194.863281 82.449219 L 194.863281 49.960938 L 200.578125 49.980469 C 200.867188 49.992188 201.15625 50.003906 201.492188 50.023438 C 206.601563 50.28125 225.960938 56.402344 225.960938 79.746094 C 225.960938 93.816406 215.632813 97.066406 209.519531 97.066406 M 189.066406 93.644531 C 189.066406 95.074219 187.90625 96.234375 186.472656 96.234375 L 185.863281 96.234375 C 184.433594 96.234375 183.269531 95.074219 183.269531 93.644531 L 183.269531 27.742188 C 183.269531 26.3125 184.433594 25.148438 185.863281 25.148438 L 186.472656 25.148438 C 187.90625 25.148438 189.066406 26.3125 189.066406 27.742188 Z M 232.78125 52.320313 C 229.777344 49.960938 224.003906 46.125 218.859375 44.269531 C 232.195313 35.96875 232.054688 22.125 230.996094 15.832031 C 230.445313 11.191406 227.714844 7.441406 224.839844 4.730469 C 221.335938 1.449219 216.808594 -0.00390625 212.984375 -0.00390625 L 199.996094 -0.00390625 L 199.996094 0.0351563 L 150.597656 0.0351563 C 150.597656 0.0351563 151.816406 8.667969 160.089844 8.667969 L 200.414063 8.667969 C 200.414063 8.667969 213.585938 8.679688 216.964844 21.558594 C 218.933594 28.449219 217.429688 36.328125 211.671875 40.976563 C 209.355469 43.015625 206.207031 43.433594 202.199219 43.433594 C 201.5625 43.433594 201.003906 43.421875 200.457031 43.410156 L 194.863281 43.402344 L 194.863281 13.464844 L 155.632813 13.464844 C 155.632813 13.464844 157.003906 20.710938 162.472656 20.710938 L 170.425781 20.710938 C 174.304688 20.710938 177.460938 23.863281 177.460938 27.742188 L 177.460938 93.644531 C 177.460938 97.300781 174.644531 100.277344 171.074219 100.609375 L 171.074219 100.613281 L 162.949219 100.613281 L 162.949219 100.578125 L 160.375 100.578125 C 156.734375 100.578125 155.625 105.035156 155.480469 105.691406 L 203.046875 105.691406 C 204.132813 105.742188 205.035156 105.777344 205.621094 105.777344 C 222.09375 105.777344 232.589844 99.246094 237.839844 90.648438 C 242.730469 83.449219 248.382813 67.667969 232.78125 52.320313 "/>
<path style=" stroke:none;fill-rule:nonzero;fill:rgb(14.109802%,72.851563%,63.476563%);fill-opacity:1;" d="M 305.0625 105.929688 C 293.722656 103.894531 284.949219 92.570313 277.898438 83.472656 C 275.179688 79.964844 272.835938 76.933594 270.722656 74.953125 C 266.675781 70.410156 260.324219 64.988281 256 63.398438 L 251.289063 61.664063 L 256.390625 61.664063 C 270.867188 61.664063 282.253906 53.53125 287.738281 43.574219 C 287.699219 43.703125 287.660156 43.832031 287.617188 43.957031 C 290.246094 39.355469 291.8125 33.613281 291.8125 27.382813 C 291.8125 7.429688 277.230469 -0.00390625 264.640625 -0.00390625 L 226.921875 -0.00390625 C 227.730469 0.527344 228.519531 1.117188 229.253906 1.804688 C 231.347656 3.777344 233.351563 6.308594 234.507813 9.328125 C 245.710938 9.328125 254.6875 9.332031 255.074219 9.351563 C 275.433594 10.503906 278.1875 30.449219 274.109375 40.238281 C 267.175781 57.742188 248.804688 58.1875 242.109375 58.332031 C 241.664063 58.339844 241.226563 58.351563 240.796875 58.359375 C 245.941406 63.085938 261.691406 81.808594 261.691406 81.808594 C 277.296875 100.070313 284.09375 106.054688 304.984375 107.042969 L 305.40625 107.066406 L 305.40625 105.992188 "/>
</g>
</svg>
